{"glyphs":{"0":{"ha":979,"x_min":65,"x_max":914,"o":"m 914 481 q 899 341 914 407 q 791 109 870 208 q 705 27 750 59 q 603 -26 657 -7 q 489 -45 548 -45 q 373 -26 428 -45 q 186 109 263 11 q 121 216 148 157 q 80 341 94 274 q 65 481 65 408 q 79 621 65 553 q 184 852 108 755 q 269 935 222 901 q 372 987 316 968 q 489 1006 427 1006 q 610 987 554 1006 q 798 852 723 949 q 861 746 836 806 q 914 481 914 627 m 779 481 q 760 632 779 562 q 703 756 741 703 q 611 840 665 809 q 489 871 557 871 q 370 840 422 871 q 279 756 317 809 q 221 632 241 703 q 200 481 200 562 q 279 205 200 315 q 371 121 317 152 q 489 90 424 90 q 608 121 555 90 q 700 205 662 152 q 779 481 779 315 z "},"1":{"ha":545,"x_min":21,"x_max":422,"o":"m 21 819 l 269 999 l 422 981 l 411 -14 l 261 -20 l 288 872 l 97 721 l 21 819 z "},"2":{"ha":825,"x_min":61,"x_max":767,"o":"m 764 647 q 738 550 757 595 q 681 464 719 505 q 583 382 643 422 q 435 301 523 342 q 355 250 393 279 q 290 189 323 227 q 240 109 256 151 l 718 126 l 725 -12 l 77 -25 q 84 72 75 26 q 112 155 94 117 q 153 226 130 194 q 201 284 177 258 q 335 387 261 346 q 477 466 420 431 q 570 536 535 500 q 616 610 604 570 q 624 703 629 650 q 601 784 620 749 q 552 842 582 819 q 400 879 491 887 q 324 854 359 876 q 263 798 290 833 q 195 618 208 727 l 61 636 q 82 752 65 702 q 124 839 99 802 q 180 902 149 876 q 241 945 210 928 q 406 991 315 984 q 541 977 484 994 q 640 930 599 960 q 707 863 681 901 q 747 786 732 824 q 764 710 760 747 q 764 647 767 673 z "},"3":{"ha":847,"x_min":47,"x_max":768,"o":"m 768 258 q 762 195 768 228 q 696 71 749 127 q 629 21 669 42 q 531 -13 587 -1 q 400 -24 475 -24 q 252 12 322 -19 q 193 45 222 25 q 135 94 163 65 q 85 161 108 122 q 47 250 62 199 l 187 288 q 234 194 199 235 q 316 127 270 152 q 404 98 362 102 q 479 102 439 96 q 551 125 518 107 q 607 174 585 142 q 632 256 630 205 q 623 325 633 296 q 552 408 602 382 q 505 429 529 422 q 460 438 482 436 q 425 439 439 440 q 408 439 417 439 q 389 438 399 439 q 297 432 350 437 l 298 553 q 346 550 325 551 q 383 548 368 549 q 400 547 392 547 q 415 547 408 547 q 486 553 455 545 q 542 576 518 562 q 583 611 566 591 q 621 669 608 638 q 633 726 633 700 q 625 777 633 749 q 595 829 617 805 q 535 870 574 854 q 435 886 496 886 q 334 863 378 883 q 260 805 291 844 q 225 703 229 767 l 100 718 q 137 821 115 779 q 242 946 180 907 q 304 977 271 965 q 367 993 336 988 q 429 999 399 998 q 465 999 446 1000 q 502 996 483 998 q 577 982 540 993 q 648 952 614 972 q 709 903 682 933 q 750 830 734 872 q 765 730 765 787 q 745 632 762 677 q 692 550 728 588 q 600 492 657 512 q 725 398 681 465 q 768 258 768 332 z "},"4":{"ha":844,"x_min":29,"x_max":781,"o":"m 576 489 l 590 978 l 724 981 l 713 496 l 781 498 l 779 380 l 710 378 l 700 -24 l 564 -25 l 574 371 l 65 349 l 29 439 l 264 961 l 396 937 l 191 472 l 576 489 z "},"5":{"ha":818,"x_min":50,"x_max":763,"o":"m 761 313 q 730 172 758 234 q 652 66 702 110 q 379 -24 549 -22 q 254 0 313 -20 q 142 60 198 19 q 50 168 85 100 l 150 236 q 228 158 186 186 q 304 117 269 130 q 385 98 345 102 q 488 116 442 97 q 567 166 534 135 q 635 319 635 232 q 572 467 635 404 q 503 516 543 497 q 414 536 462 534 q 349 529 385 536 q 281 508 319 523 q 200 467 243 494 l 92 543 l 204 965 l 707 961 l 700 825 l 283 829 l 221 610 q 300 635 260 627 q 372 645 340 642 q 443 646 407 648 q 563 618 505 640 q 665 555 621 595 q 736 454 710 514 q 761 313 763 394 z "},"6":{"ha":884,"x_min":67,"x_max":826,"o":"m 822 335 q 822 257 826 298 q 803 175 817 216 q 762 98 788 135 q 699 33 737 62 q 608 -12 660 5 q 489 -29 556 -28 q 359 -12 418 -30 q 172 117 243 24 q 115 214 139 160 q 68 437 68 319 q 70 501 67 469 q 79 564 73 532 q 113 686 90 627 q 171 796 136 745 q 253 885 208 848 q 358 945 300 923 q 488 968 417 967 q 610 950 554 966 q 713 902 664 933 q 793 812 762 871 l 696 745 q 640 810 675 787 q 568 844 604 833 q 484 854 525 855 q 363 817 416 850 q 273 728 310 783 q 196 452 196 614 l 196 431 q 326 564 241 513 q 413 602 366 588 q 509 615 460 615 q 633 592 577 615 q 728 530 688 569 q 792 441 768 492 q 822 335 817 390 m 478 498 q 383 461 427 491 q 344 429 364 448 q 307 382 324 410 q 273 318 288 355 q 248 235 258 281 q 347 126 286 165 q 485 86 407 86 q 559 96 527 86 q 615 124 591 106 q 653 163 638 141 q 677 210 667 184 q 689 259 686 235 q 692 306 692 284 q 630 448 688 393 q 563 488 602 474 q 478 498 524 501 z "},"7":{"ha":679,"x_min":49,"x_max":657,"o":"m 64 806 l 49 935 l 657 942 l 653 838 q 595 773 623 807 q 543 705 568 739 q 498 636 519 670 q 460 570 477 602 q 389 425 420 500 q 361 352 374 389 q 336 277 348 315 q 297 134 317 213 q 271 -14 277 56 l 138 17 q 156 115 146 67 q 179 207 167 163 q 203 290 191 251 q 228 363 216 330 q 256 438 241 402 q 286 507 271 474 q 311 559 298 533 q 339 612 324 585 q 402 712 365 658 q 489 815 440 766 l 64 806 z "},"8":{"ha":777,"x_min":65,"x_max":705,"o":"m 705 261 q 680 145 705 199 q 612 52 655 92 q 510 -12 568 12 q 386 -35 452 -35 q 261 -12 319 -35 q 159 52 202 12 q 90 145 115 92 q 65 261 65 199 q 106 407 65 340 q 216 514 148 475 q 142 603 170 551 q 115 717 115 655 q 138 820 115 772 q 199 903 160 867 q 289 960 237 939 q 400 981 341 981 q 511 960 459 981 q 602 903 563 939 q 663 820 640 867 q 685 717 685 772 q 653 596 685 652 q 570 504 622 540 q 669 399 632 463 q 705 261 705 336 m 554 711 q 532 790 554 755 q 472 846 509 825 q 390 867 435 867 q 285 822 324 867 q 245 711 245 777 q 282 607 245 648 q 386 558 318 565 q 468 577 429 558 q 530 630 506 595 q 554 711 554 665 m 570 269 q 545 359 570 319 q 479 423 521 399 q 387 447 438 447 q 295 423 337 447 q 228 359 253 399 q 203 269 203 319 q 228 180 203 220 q 295 115 253 139 q 387 90 337 90 q 479 115 437 90 q 545 180 520 139 q 570 269 570 220 z "},"9":{"ha":888,"x_min":63,"x_max":821,"o":"m 819 515 q 809 389 821 452 q 717 157 786 259 q 635 68 680 105 q 529 8 588 31 q 400 -16 471 -14 q 278 3 336 -14 q 175 51 227 17 q 96 140 123 85 l 192 208 q 248 143 212 167 q 320 109 285 119 q 404 98 362 98 q 509 127 462 102 q 593 196 557 153 q 652 294 629 238 q 685 415 675 351 q 609 349 654 374 q 522 311 564 323 q 422 293 473 296 q 175 374 271 288 q 99 477 127 416 q 65 618 70 538 q 68 696 63 653 q 88 778 74 738 q 127 855 102 819 q 191 920 153 892 q 280 965 229 948 q 399 982 332 982 q 529 964 469 983 q 715 836 644 928 q 773 740 749 792 q 807 631 796 688 q 819 515 819 573 m 643 646 q 623 736 643 695 q 570 806 604 777 q 403 867 499 867 q 299 845 340 867 q 235 790 258 823 q 203 718 212 757 q 196 647 195 680 q 214 542 197 586 q 258 469 230 498 q 410 419 315 412 q 525 446 480 423 q 597 500 570 468 q 633 570 623 532 q 643 646 643 609 z "},"A":{"ha":1068,"x_min":-3,"x_max":1035,"o":"m 1035 -16 l 875 -39 q 790 236 835 100 l 244 212 q 151 -47 195 84 l -3 -26 q 209 478 93 230 q 457 970 326 726 l 647 966 q 860 487 764 731 q 1035 -16 956 242 m 538 857 q 408 596 469 727 q 292 330 347 465 l 750 350 q 651 606 704 480 q 538 857 598 731 z "},"B":{"ha":1028,"x_min":113,"x_max":977,"o":"m 975 265 q 952 142 977 193 q 884 55 927 90 q 784 -1 841 20 q 664 -34 726 -22 q 537 -48 601 -45 q 418 -52 473 -52 q 293 -48 361 -52 q 142 -39 224 -45 l 113 949 q 250 968 183 962 q 368 977 316 975 q 484 979 429 981 q 587 973 536 979 q 687 957 640 968 q 777 926 735 946 q 848 876 817 907 q 897 803 879 846 q 914 701 914 760 q 886 571 914 625 q 814 482 859 517 q 901 430 868 464 q 952 355 934 397 q 975 265 970 315 m 486 856 q 417 854 455 856 q 344 848 385 852 q 257 838 303 844 l 268 492 q 374 495 326 493 q 456 500 422 498 q 495 503 477 501 q 529 505 513 504 q 625 522 579 508 q 705 560 671 536 q 757 620 739 585 q 771 701 776 655 q 753 761 767 736 q 666 833 724 810 q 608 850 640 844 q 546 857 577 856 q 486 856 515 858 m 615 396 q 590 394 608 395 q 555 391 572 393 q 534 390 538 390 l 454 384 q 370 378 418 381 q 272 372 323 375 l 282 72 q 301 71 292 71 q 319 71 311 71 l 355 71 q 391 71 371 71 q 436 71 412 71 q 537 76 484 71 q 644 92 591 81 q 740 124 697 103 q 807 179 782 146 q 831 264 833 213 q 800 330 825 300 q 728 378 773 359 q 615 396 683 396 z "},"C":{"ha":1019,"x_min":56,"x_max":985,"o":"m 875 254 l 985 178 q 806 18 916 77 q 693 -26 753 -10 q 568 -41 633 -41 q 432 -23 497 -41 q 205 113 302 14 q 125 218 159 159 q 74 344 92 277 q 56 484 56 411 q 74 623 56 556 q 205 855 111 758 q 309 937 252 902 q 432 990 366 971 q 568 1008 498 1008 q 685 995 629 1008 q 792 956 741 981 q 966 815 895 906 l 863 730 q 734 835 810 796 q 568 873 659 873 q 421 843 490 873 q 301 759 353 812 q 220 635 250 706 q 191 484 191 564 q 220 332 191 403 q 301 208 250 260 q 421 124 353 155 q 568 93 490 93 q 660 104 616 93 q 743 137 704 116 q 875 254 822 179 z "},"D":{"ha":1048,"x_min":115,"x_max":990,"o":"m 990 498 q 958 328 990 404 q 868 192 924 252 q 738 91 812 133 q 661 52 701 70 q 581 21 622 35 q 412 -19 498 -6 q 245 -32 326 -32 q 192 -31 218 -32 q 142 -25 165 -29 l 115 982 q 309 990 221 990 q 385 989 347 990 q 464 985 424 987 q 620 961 544 979 q 763 909 695 943 q 881 822 830 876 q 961 688 931 767 q 990 498 990 608 m 863 505 q 840 625 861 570 q 785 719 820 677 q 703 789 750 760 q 655 815 680 804 q 602 837 629 827 q 488 865 548 856 q 368 873 429 873 q 314 872 342 873 q 254 867 285 870 l 275 100 q 287 99 281 99 q 299 98 293 98 l 322 98 q 457 111 390 98 q 697 205 595 136 q 786 286 748 239 q 844 386 823 330 q 863 505 865 441 z "},"E":{"ha":916,"x_min":119,"x_max":856,"o":"m 257 479 l 660 496 l 663 366 l 260 346 l 262 134 l 848 167 l 851 33 l 135 -5 l 119 961 l 856 972 l 851 843 l 253 833 l 257 479 z "},"F":{"ha":875,"x_min":119,"x_max":856,"o":"m 258 479 l 660 496 l 663 366 l 260 346 l 265 0 l 135 -5 l 119 961 l 856 972 l 851 843 l 253 833 l 258 479 z "},"G":{"ha":1050,"x_min":56,"x_max":985,"o":"m 427 486 l 974 504 l 985 178 q 806 18 916 77 q 693 -26 753 -10 q 568 -41 633 -41 q 432 -23 497 -41 q 205 113 302 14 q 125 218 159 159 q 74 344 92 277 q 56 484 56 411 q 74 623 56 556 q 205 855 111 758 q 309 937 252 902 q 432 990 366 971 q 568 1008 498 1008 q 685 995 629 1008 q 792 956 741 981 q 966 815 895 906 l 863 730 q 734 835 810 796 q 568 873 659 873 q 421 843 490 873 q 301 759 353 812 q 220 635 250 706 q 191 484 191 564 q 220 332 191 403 q 301 208 250 260 q 421 124 353 155 q 568 93 490 93 q 721 126 650 93 q 844 216 792 159 l 842 361 l 427 345 l 427 486 z "},"H":{"ha":1143,"x_min":122,"x_max":1021,"o":"m 122 970 l 265 977 l 271 433 l 868 463 l 861 966 l 1013 956 l 1021 24 l 875 12 l 871 336 l 272 310 l 277 5 l 135 0 l 122 970 z "},"I":{"ha":400,"x_min":117,"x_max":277,"o":"m 117 966 l 268 961 l 277 24 l 140 24 l 117 966 z "},"J":{"ha":920,"x_min":31,"x_max":808,"o":"m 808 350 q 780 196 808 266 q 699 77 751 127 q 576 -4 647 26 q 422 -39 505 -34 q 255 -14 327 -45 q 134 76 182 18 q 58 215 84 134 q 31 390 33 296 l 174 406 q 181 298 172 344 q 207 218 190 252 q 245 163 223 185 q 292 128 268 142 q 419 97 349 96 q 512 117 473 101 q 580 158 552 133 q 626 214 608 182 q 655 281 644 244 q 669 355 665 317 q 673 431 673 393 q 673 474 673 450 q 672 526 673 498 q 668 641 670 581 q 663 761 666 701 q 660 818 661 791 q 656 868 658 844 q 653 914 655 890 q 649 956 651 939 q 646 972 648 972 l 793 975 q 796 943 794 974 q 799 859 798 911 q 803 741 801 807 q 804 673 804 707 q 806 605 805 640 q 808 469 807 535 q 808 350 808 402 z "},"K":{"ha":977,"x_min":119,"x_max":956,"o":"m 119 956 l 262 966 l 277 389 l 790 972 l 942 953 l 624 590 l 956 5 l 796 -18 l 534 489 l 281 199 l 286 -3 l 135 -5 l 119 956 z "},"L":{"ha":897,"x_min":125,"x_max":868,"o":"m 261 82 l 861 129 l 868 -16 l 129 -66 l 125 965 l 265 972 l 261 82 z "},"M":{"ha":1275,"x_min":43,"x_max":1231,"o":"m 888 975 l 1047 979 l 1231 -29 l 1090 -57 l 954 794 l 730 57 l 562 37 l 309 753 l 186 -25 l 43 -5 l 231 983 l 371 983 l 644 201 l 888 975 z "},"N":{"ha":1143,"x_min":122,"x_max":1021,"o":"m 122 970 l 265 977 l 872 225 l 861 966 l 1013 956 l 1021 24 l 875 12 l 268 737 l 277 5 l 135 0 l 122 970 z "},"O":{"ha":1137,"x_min":56,"x_max":1082,"o":"m 1082 479 q 1063 340 1082 407 q 931 109 1027 208 q 827 26 883 59 q 704 -27 770 -8 q 568 -46 639 -46 q 432 -27 496 -46 q 205 109 300 11 q 125 215 161 155 q 74 340 92 273 q 56 479 56 407 q 74 619 56 552 q 205 851 111 754 q 309 933 252 898 q 432 986 366 967 q 568 1004 498 1004 q 705 986 639 1004 q 931 851 836 948 q 1012 745 978 804 q 1064 619 1046 686 q 1082 479 1082 552 m 947 479 q 934 583 947 532 q 836 755 906 684 q 760 817 802 791 q 568 869 672 869 q 421 839 490 869 q 301 755 353 808 q 220 631 250 702 q 191 479 191 560 q 220 328 191 399 q 301 203 250 256 q 421 120 353 151 q 568 89 490 89 q 669 103 621 89 q 836 203 765 130 q 896 282 871 239 q 934 375 920 326 q 947 479 947 425 z "},"P":{"ha":1003,"x_min":126,"x_max":973,"o":"m 970 610 q 944 494 966 544 q 882 404 921 443 q 793 336 844 364 q 687 291 742 308 q 570 264 630 273 q 452 256 509 256 q 367 258 414 256 q 267 271 320 261 l 269 -1 l 126 -7 l 126 953 q 264 989 198 977 q 381 1007 330 1001 q 493 1015 441 1015 q 591 1008 539 1015 q 698 984 644 1002 q 803 936 752 966 q 892 861 853 906 q 951 754 930 816 q 970 610 973 692 m 493 865 q 454 865 474 865 q 415 863 435 864 q 340 853 380 860 q 262 832 300 846 l 265 410 q 348 399 307 401 q 425 396 389 396 q 508 400 465 396 q 595 413 552 404 q 679 441 639 423 q 749 486 718 458 q 798 552 780 514 q 817 643 817 591 q 729 805 817 746 q 493 865 642 862 z "},"Q":{"ha":1137,"x_min":56,"x_max":1082,"o":"m 911 75 l 1067 -89 l 970 -175 l 806 0 q 692 -44 752 -28 q 568 -60 632 -60 q 432 -41 497 -60 q 205 94 300 -3 q 125 201 161 140 q 74 326 92 259 q 56 465 56 393 q 74 605 56 538 q 205 837 111 740 q 309 919 252 884 q 432 971 366 953 q 568 990 498 990 q 705 972 639 990 q 931 837 836 934 q 1012 730 978 789 q 1064 605 1046 672 q 1082 465 1082 538 q 1070 353 1082 408 q 1036 249 1058 299 q 911 75 992 150 m 947 465 q 934 569 947 518 q 836 742 907 669 q 760 803 802 777 q 568 856 672 856 q 421 825 490 856 q 301 741 353 794 q 220 617 250 688 q 191 465 191 546 q 220 314 191 385 q 301 190 250 243 q 421 106 353 137 q 568 75 490 75 q 708 103 642 75 l 581 240 l 672 329 l 819 172 q 913 302 878 227 q 947 465 947 377 z "},"R":{"ha":991,"x_min":126,"x_max":937,"o":"m 935 610 q 913 514 932 557 q 863 436 895 471 q 791 373 832 401 q 703 326 749 346 l 900 16 l 760 -31 l 570 286 q 502 276 537 280 q 425 272 467 272 q 351 275 391 272 q 267 286 311 278 l 269 -1 l 126 -7 l 126 953 q 243 979 184 970 q 349 993 301 988 q 457 999 406 998 q 555 993 501 999 q 662 971 608 987 q 767 928 716 956 q 856 857 817 900 q 916 753 894 814 q 935 610 937 692 m 457 863 q 426 862 441 863 q 393 860 410 861 q 330 854 364 858 q 262 843 295 850 l 265 411 q 329 402 297 405 q 392 400 361 400 q 546 419 473 400 q 674 470 619 437 q 762 547 729 503 q 794 643 794 591 q 769 736 794 695 q 700 805 745 777 q 457 863 608 863 z "},"S":{"ha":896,"x_min":51,"x_max":853,"o":"m 846 160 q 819 76 839 113 q 769 12 799 39 q 703 -35 739 -16 q 625 -64 663 -54 q 543 -81 585 -76 q 464 -86 502 -86 q 361 -75 412 -86 q 261 -44 310 -64 q 164 4 212 -24 q 69 65 116 32 l 168 182 q 273 108 221 135 q 366 68 325 81 q 458 46 415 51 q 550 54 507 43 q 623 83 592 64 q 696 186 688 123 q 687 232 698 211 q 606 300 666 273 q 576 313 591 307 q 545 324 561 319 q 478 342 513 334 q 412 355 444 350 q 331 374 374 363 q 247 403 288 385 q 169 448 205 421 q 106 514 132 476 q 65 603 79 552 q 56 720 51 654 q 79 818 60 775 q 195 956 115 904 q 276 996 233 980 q 366 1020 319 1013 q 458 1026 412 1027 q 587 1006 521 1023 q 708 962 645 991 q 822 884 770 933 l 746 764 q 654 837 706 809 q 555 877 602 864 q 453 893 504 891 q 343 875 391 893 q 262 827 295 857 q 212 761 229 798 q 195 689 195 724 q 215 622 195 654 q 273 563 236 589 q 465 492 350 507 q 515 485 490 489 q 564 474 539 480 q 658 443 613 462 q 741 397 703 424 q 804 336 779 370 q 841 257 829 300 q 846 160 853 213 z "},"T":{"ha":836,"x_min":28,"x_max":811,"o":"m 31 819 l 28 962 l 811 979 l 808 850 l 492 838 l 501 -18 l 351 -21 l 351 832 l 31 819 z "},"U":{"ha":968,"x_min":98,"x_max":876,"o":"m 875 465 q 873 403 876 434 q 866 341 871 372 q 834 224 856 279 q 779 123 813 169 q 700 42 745 75 q 595 -12 654 7 q 465 -31 536 -31 q 339 -8 393 -31 q 245 54 285 15 q 177 144 205 93 q 133 251 149 195 q 108 365 116 307 q 98 476 100 423 q 98 547 98 510 q 101 623 99 583 q 114 783 104 692 q 142 977 123 873 l 289 956 q 264 826 273 888 q 249 709 254 764 q 242 608 243 654 q 240 530 240 563 q 241 490 240 511 q 243 446 242 469 q 256 351 247 399 q 281 256 264 302 q 325 175 298 210 q 391 118 352 140 q 485 96 431 96 q 664 195 598 96 q 712 312 696 243 q 728 465 729 380 q 720 612 727 534 q 703 767 714 680 q 671 953 691 854 l 815 972 q 848 768 837 861 q 866 608 860 675 q 872 533 869 568 q 875 465 874 497 z "},"V":{"ha":1068,"x_min":33,"x_max":1071,"o":"m 917 997 l 1071 977 q 859 472 975 720 q 611 -20 743 223 l 422 -17 q 33 965 190 453 l 193 989 q 338 546 258 758 q 525 115 419 332 q 740 543 640 321 q 917 997 839 764 z "},"W":{"ha":1276,"x_min":43,"x_max":1231,"o":"m 954 165 l 1090 1017 l 1231 989 l 1047 -20 l 888 -16 l 644 758 l 371 -24 l 231 -24 l 43 965 l 186 985 l 309 207 l 562 922 l 730 903 l 954 165 z "},"X":{"ha":827,"x_min":17,"x_max":817,"o":"m 412 619 l 632 962 l 779 946 l 493 496 l 817 -1 l 671 -28 l 412 368 l 160 -28 l 17 -1 l 332 492 l 35 949 l 187 965 l 412 619 z "},"Y":{"ha":880,"x_min":4,"x_max":851,"o":"m 452 449 l 697 970 l 851 965 l 513 302 l 513 -22 l 372 -31 l 383 306 l 4 951 l 164 970 l 452 449 z "},"Z":{"ha":848,"x_min":50,"x_max":798,"o":"m 74 819 l 65 965 l 798 975 l 794 859 l 225 122 l 786 127 l 781 -16 l 56 -18 l 50 110 l 614 848 l 74 819 z "},"a":{"ha":867,"x_min":43,"x_max":790,"o":"m 760 -65 l 627 -43 l 636 53 q 474 -24 553 0 q 325 -47 394 -47 q 230 -35 276 -47 q 150 4 184 -22 q 93 70 115 30 q 72 165 72 111 q 88 264 72 220 q 133 340 104 307 q 200 397 161 374 q 283 436 239 421 q 376 458 328 451 q 473 465 425 465 q 557 462 518 465 q 625 453 595 458 q 592 543 613 501 q 538 611 572 585 q 452 637 505 637 q 391 630 425 637 q 317 602 357 622 q 228 546 276 581 q 125 454 180 510 l 43 554 q 168 654 108 615 q 280 715 227 692 q 377 745 332 736 q 458 753 422 753 q 570 732 522 753 q 656 674 618 711 q 718 587 693 637 q 760 479 743 538 q 783 360 776 422 q 790 237 790 298 q 783 98 790 172 q 760 -65 775 23 m 646 204 q 648 271 647 238 q 644 340 648 304 q 574 357 611 351 q 501 363 538 363 q 383 349 440 363 q 284 307 326 334 q 222 241 243 280 q 214 151 201 201 q 251 94 223 111 q 317 78 278 78 q 429 99 367 78 q 550 151 492 121 q 646 204 608 180 z "},"b":{"ha":896,"x_min":97,"x_max":846,"o":"m 109 -35 l 97 1011 l 245 1017 l 241 616 q 323 675 281 654 q 401 705 366 696 q 484 718 446 718 q 575 705 530 718 q 736 610 667 679 q 795 534 770 576 q 833 445 820 493 q 844 343 846 396 q 827 233 842 286 q 726 61 795 131 q 654 3 693 26 q 493 -46 576 -46 q 451 -42 472 -45 q 408 -33 429 -39 q 324 -3 370 -24 q 235 57 279 18 l 235 -32 l 109 -35 m 699 330 q 686 428 702 381 q 640 511 670 475 q 565 568 608 547 q 469 589 521 589 q 326 539 387 587 q 239 419 264 490 l 237 257 q 322 130 261 175 q 457 83 383 85 q 550 101 507 82 q 625 154 593 121 q 676 233 657 188 q 699 330 696 278 z "},"c":{"ha":842,"x_min":50,"x_max":803,"o":"m 802 511 l 803 509 l 690 440 l 689 444 q 590 553 654 513 q 449 593 526 593 q 345 572 393 593 q 260 514 296 551 q 203 428 224 477 q 182 323 182 379 q 203 220 182 269 q 260 134 224 171 q 345 77 296 98 q 449 56 393 56 q 583 92 519 56 q 681 189 646 129 l 684 193 l 802 126 l 800 122 q 736 43 774 78 q 652 -18 699 7 q 449 -71 558 -71 q 301 -41 372 -71 q 174 42 230 -11 q 84 167 118 95 q 50 323 50 239 q 64 424 50 374 q 165 598 93 524 q 203 633 183 617 q 245 663 224 649 q 341 704 290 689 q 449 720 393 720 q 660 665 566 720 q 802 511 753 610 z "},"d":{"ha":918,"x_min":53,"x_max":815,"o":"m 682 635 l 688 982 l 815 972 l 812 -28 l 673 -28 l 675 58 q 593 2 637 23 q 510 -29 549 -19 q 425 -41 467 -40 q 161 65 265 -41 q 82 189 111 116 q 53 354 53 262 q 85 518 53 446 q 169 640 117 591 q 286 716 221 690 q 418 742 351 742 q 510 730 463 741 q 596 698 550 720 q 682 635 642 676 m 425 83 q 581 136 511 83 q 677 271 652 187 l 679 415 q 641 495 667 458 q 581 557 615 531 q 421 611 508 611 q 329 590 371 611 q 256 534 287 570 q 209 449 226 498 q 192 343 192 400 q 209 239 192 286 q 258 157 227 191 q 331 103 288 122 q 425 83 374 83 z "},"e":{"ha":823,"x_min":52,"x_max":786,"o":"m 424 62 q 562 107 499 62 q 644 233 625 153 l 775 207 q 722 95 756 145 q 641 9 687 45 q 539 -47 595 -27 q 424 -66 484 -66 q 265 -39 334 -66 q 149 37 196 -12 q 52 313 52 138 q 80 471 52 397 q 159 599 109 545 q 277 684 210 653 q 424 715 345 715 q 557 688 494 715 q 667 612 619 661 q 747 498 715 564 q 786 355 778 432 l 199 268 q 223 181 203 220 q 271 117 242 143 q 424 62 332 62 m 203 393 l 611 443 l 607 456 q 536 561 581 523 q 424 599 491 599 q 361 589 395 599 q 296 555 328 579 q 238 492 264 532 q 203 393 213 452 z "},"f":{"ha":615,"x_min":29,"x_max":713,"o":"m 29 559 l 29 689 l 191 688 q 219 825 198 759 q 280 942 241 891 q 378 1023 319 993 q 519 1054 437 1054 q 614 1039 564 1054 q 713 981 664 1023 l 646 867 q 574 903 609 892 q 513 916 540 913 q 453 914 481 920 q 405 893 426 907 q 368 852 384 878 q 326 686 338 802 l 614 685 l 599 551 l 318 555 l 318 496 q 317 405 317 451 q 317 313 317 359 l 317 136 q 316 41 317 89 q 315 -52 316 -7 l 175 -54 q 177 83 176 20 q 178 199 178 146 q 180 296 179 252 q 181 375 180 340 l 183 510 l 183 557 l 29 559 z "},"g":{"ha":917,"x_min":53,"x_max":817,"o":"m 682 621 l 684 755 l 817 751 l 812 -28 q 809 -72 812 -50 q 801 -116 806 -94 q 716 -278 779 -205 q 644 -342 684 -314 q 551 -388 602 -370 q 440 -411 500 -406 q 286 -394 360 -414 q 157 -332 219 -376 q 64 -210 94 -288 l 195 -153 q 262 -236 218 -206 q 351 -274 306 -265 q 456 -278 401 -285 q 500 -266 479 -273 q 538 -249 521 -258 q 598 -205 573 -229 q 637 -155 623 -181 q 651 -128 645 -141 q 661 -103 656 -115 q 673 -59 670 -79 q 676 -28 676 -39 l 676 61 q 592 2 635 22 q 511 -28 548 -19 q 468 -37 489 -34 q 425 -41 446 -41 q 161 65 265 -41 q 82 189 111 116 q 53 354 53 262 q 85 518 53 446 q 169 640 117 591 q 286 716 221 690 q 418 742 351 742 q 511 722 464 736 q 597 685 551 709 q 682 621 643 661 m 425 89 q 589 149 516 89 q 646 215 623 176 q 679 301 670 254 l 679 390 q 647 478 671 438 q 587 546 623 517 q 421 606 514 606 q 331 586 372 606 q 260 530 290 566 q 214 447 231 495 q 197 343 197 399 q 214 241 197 288 q 262 161 231 195 q 333 108 292 127 q 425 89 375 89 z "},"h":{"ha":913,"x_min":97,"x_max":836,"o":"m 109 -35 l 97 1011 l 253 1017 l 249 604 q 328 668 286 645 q 407 704 370 692 q 490 722 449 718 q 736 617 644 722 q 807 493 781 566 q 836 329 833 420 q 835 231 836 281 q 831 132 834 180 q 820 41 827 84 q 803 -37 814 -3 l 648 -26 q 676 100 668 39 q 688 211 685 162 q 690 319 691 268 q 666 443 687 392 q 612 526 644 494 q 543 573 581 558 q 468 587 505 587 q 390 565 430 585 q 317 514 356 549 q 245 418 279 480 l 241 -32 l 109 -35 z "},"i":{"ha":347,"x_min":89,"x_max":282,"o":"m 282 904 q 253 837 282 865 q 184 808 224 808 q 117 837 145 808 q 89 904 89 865 q 117 973 89 944 q 184 1002 145 1002 q 253 973 224 1002 q 282 904 282 944 m 110 660 l 250 665 l 243 340 q 239 129 240 205 q 237 -18 237 35 l 98 -18 q 100 62 99 18 q 102 156 101 106 q 106 368 103 243 l 110 660 z "},"j":{"ha":349,"x_min":-118,"x_max":285,"o":"m 285 904 q 257 837 285 865 q 189 808 229 808 q 121 837 150 808 q 92 904 92 865 q 121 973 92 944 q 189 1002 150 1002 q 257 973 229 1002 q 285 904 285 944 m 107 668 l 248 663 q 245 473 246 558 q 244 319 244 388 q 243 242 244 284 q 242 164 243 201 q 242 105 242 127 q 241 24 241 59 q 241 -36 241 -12 q 240 -73 241 -54 q 236 -113 239 -92 q 217 -194 231 -154 q 178 -272 202 -235 q 113 -338 153 -309 q 16 -383 73 -366 q -118 -399 -41 -399 l -110 -245 q 5 -224 -39 -253 q 73 -147 50 -195 q 102 -33 97 -98 q 103 46 102 3 q 104 142 104 90 q 106 361 106 230 q 107 668 107 492 z "},"k":{"ha":770,"x_min":93,"x_max":750,"o":"m 93 -16 l 127 1031 l 278 1028 l 253 385 l 607 741 l 711 657 l 458 407 l 750 28 l 631 -60 l 358 307 l 245 197 l 239 -7 l 93 -16 z "},"l":{"ha":390,"x_min":94,"x_max":385,"o":"m 385 102 l 367 -33 q 282 -17 319 -33 q 217 24 245 -1 q 169 80 189 48 q 135 144 149 112 q 94 319 102 222 l 113 1179 l 254 1179 l 248 958 q 245 862 247 908 q 243 775 244 817 q 239 628 241 693 q 236 513 237 562 q 232 329 233 395 q 250 216 233 267 q 297 137 265 170 q 385 102 329 103 z "},"m":{"ha":1125,"x_min":96,"x_max":1032,"o":"m 96 707 l 237 722 l 240 525 q 304 601 271 564 q 379 663 338 638 q 472 688 420 688 q 578 648 532 688 q 631 532 623 608 q 693 604 660 568 q 766 664 726 640 q 856 688 806 688 q 968 643 922 688 q 1017 511 1014 598 q 1021 455 1019 486 q 1024 387 1023 425 q 1030 223 1027 322 q 1032 -16 1032 123 l 890 -22 q 890 189 890 101 q 888 334 889 277 l 886 446 q 827 555 882 555 q 774 532 802 555 q 724 481 746 509 q 708 460 715 471 q 692 439 700 450 q 664 397 677 417 q 640 361 650 376 q 643 295 642 331 q 646 214 645 259 q 647 112 647 168 q 647 -16 647 56 l 515 -22 q 513 189 515 101 q 508 334 511 277 q 505 396 507 368 q 501 446 503 424 q 441 555 497 555 q 406 544 425 555 q 332 473 368 520 q 315 449 323 461 q 298 425 307 437 q 269 381 286 406 q 243 342 252 356 l 249 -16 l 114 -22 l 96 707 z "},"n":{"ha":859,"x_min":93,"x_max":765,"o":"m 264 -32 l 118 -50 l 104 330 q 102 413 103 369 q 99 497 100 458 q 97 560 98 537 q 93 704 94 656 l 248 707 l 250 511 q 301 584 273 550 q 363 645 330 618 q 434 688 396 671 q 513 707 471 704 q 603 698 565 710 q 668 664 641 686 q 713 613 695 643 q 741 552 731 583 q 755 489 751 521 q 761 432 760 458 q 763 197 765 315 q 758 -47 761 79 l 619 -43 q 629 176 625 66 q 628 396 633 285 q 623 451 628 420 q 603 512 617 481 q 576 549 593 533 q 537 573 560 565 q 482 576 513 581 q 374 498 429 568 q 254 293 319 431 l 259 119 q 260 62 260 87 q 262 21 261 38 q 264 -32 263 -18 z "},"o":{"ha":831,"x_min":53,"x_max":779,"o":"m 779 329 q 751 171 779 243 q 673 45 722 98 q 557 -39 623 -9 q 415 -69 490 -69 q 159 41 261 -69 q 81 166 110 93 q 53 329 53 239 q 81 493 53 419 q 159 618 110 566 q 274 699 208 671 q 415 728 340 728 q 557 697 490 728 q 673 614 623 667 q 751 488 722 561 q 779 329 779 415 m 636 330 q 624 429 636 379 q 585 519 612 479 q 517 584 559 559 q 415 608 475 608 q 316 584 357 608 q 248 519 275 559 q 210 429 222 479 q 197 330 197 379 q 211 232 197 281 q 251 143 224 183 q 319 78 278 104 q 415 53 360 53 q 514 78 473 53 q 583 143 556 104 q 623 232 610 183 q 636 330 636 281 z "},"p":{"ha":899,"x_min":100,"x_max":849,"o":"m 111 -410 l 100 705 l 249 711 l 248 612 q 328 671 286 650 q 406 703 370 692 q 486 718 449 715 q 578 705 533 718 q 739 610 669 679 q 798 534 774 576 q 836 445 823 493 q 847 343 849 396 q 829 233 845 286 q 729 61 798 131 q 657 3 696 26 q 496 -46 578 -46 q 412 -34 454 -45 q 330 -4 374 -24 q 241 53 285 16 l 237 -407 l 111 -410 m 694 330 q 637 506 700 433 q 564 561 606 541 q 472 581 522 581 q 329 528 390 579 q 245 404 267 477 l 244 275 q 276 197 254 231 q 328 140 298 163 q 461 93 387 94 q 550 110 509 92 q 623 161 592 128 q 673 237 654 193 q 694 330 692 280 z "},"q":{"ha":917,"x_min":53,"x_max":815,"o":"m 682 637 l 684 746 l 815 736 l 812 -403 l 669 -403 l 675 58 q 593 2 637 23 q 510 -29 549 -19 q 425 -41 467 -40 q 161 65 265 -41 q 82 189 111 116 q 53 354 53 262 q 85 518 53 446 q 169 640 117 591 q 286 716 221 690 q 418 742 351 742 q 510 727 465 739 q 596 696 550 717 q 682 637 642 675 m 425 89 q 585 146 513 89 q 644 210 619 172 q 677 293 668 248 l 679 396 q 645 482 669 443 q 585 548 620 521 q 421 606 511 606 q 331 586 372 606 q 260 530 290 566 q 214 447 231 495 q 197 343 197 399 q 214 241 197 288 q 262 161 231 195 q 333 108 292 127 q 425 89 375 89 z "},"r":{"ha":757,"x_min":93,"x_max":743,"o":"m 743 432 l 610 382 q 594 475 609 439 q 553 530 578 511 q 500 546 530 547 q 460 530 480 543 q 416 496 439 517 q 371 450 393 475 q 349 423 359 437 q 327 396 338 410 q 287 341 306 369 q 253 292 268 314 q 254 228 254 264 q 256 158 255 193 q 258 100 257 124 q 260 23 259 58 q 264 -32 262 -11 l 118 -50 l 104 330 q 102 413 103 369 q 99 497 100 458 q 97 560 98 537 q 93 704 94 656 l 248 707 q 248 665 248 686 q 249 623 248 644 q 249 581 249 601 q 250 543 249 561 q 250 502 250 522 q 250 461 250 481 q 298 530 270 492 q 362 600 327 567 q 440 658 398 633 q 530 689 482 683 q 629 666 583 692 q 667 637 648 655 q 702 591 686 619 q 728 524 718 563 q 743 432 739 485 z "},"s":{"ha":770,"x_min":41,"x_max":722,"o":"m 722 149 q 696 40 722 84 q 627 -31 671 -3 q 526 -72 583 -58 q 408 -87 469 -85 q 282 -75 345 -86 q 161 -39 227 -65 q 41 28 94 -14 l 107 131 q 183 93 144 111 q 263 61 222 75 q 347 39 304 47 q 435 31 389 31 q 534 52 499 31 q 579 104 568 73 q 555 182 591 145 q 540 195 549 189 q 520 206 531 201 q 467 223 498 216 q 393 232 436 230 q 276 244 332 235 q 175 275 219 254 q 101 331 130 296 q 66 416 73 365 q 73 506 62 463 q 163 634 95 584 q 198 656 180 646 q 235 674 216 666 q 318 697 275 690 q 407 705 362 705 q 469 703 433 705 q 545 692 505 700 q 624 668 584 684 q 699 628 664 653 l 652 504 q 567 541 607 528 q 495 562 526 554 q 459 568 477 566 q 427 572 442 571 q 261 550 320 578 q 201 464 201 522 q 224 405 201 423 q 285 378 246 386 q 342 370 307 373 q 415 363 377 367 q 485 355 454 360 q 597 325 551 345 q 670 277 642 304 q 710 217 698 250 q 722 149 722 184 z "},"t":{"ha":659,"x_min":16,"x_max":652,"o":"m 253 671 l 258 968 l 393 977 l 389 673 l 652 682 l 642 555 l 387 549 l 382 -43 l 239 -46 l 250 545 l 16 539 l 18 664 l 253 671 z "},"u":{"ha":868,"x_min":86,"x_max":775,"o":"m 775 -46 l 621 -49 l 618 146 q 567 70 595 106 q 505 8 538 35 q 434 -35 472 -19 q 355 -49 397 -50 q 251 -26 294 -47 q 177 31 208 -5 q 130 111 147 66 q 102 208 111 159 q 89 312 92 258 q 86 415 86 365 q 92 558 86 486 q 110 705 98 630 l 249 701 q 234 550 238 617 q 231 432 231 483 q 231 406 231 420 q 231 374 231 391 q 236 299 232 338 q 250 220 241 259 q 277 152 259 183 q 321 105 295 121 q 386 94 347 89 q 495 166 437 101 q 614 364 552 231 l 610 536 q 609 593 610 568 q 608 635 608 618 q 606 690 606 675 l 751 707 l 759 496 q 762 407 760 449 q 764 328 763 365 q 767 244 766 290 q 770 160 768 199 q 772 98 771 121 q 774 14 773 50 q 775 -46 774 -22 z "},"v":{"ha":766,"x_min":41,"x_max":737,"o":"m 382 100 l 597 707 l 737 688 l 471 -26 l 279 -24 l 41 661 l 179 682 l 382 100 z "},"w":{"ha":1043,"x_min":46,"x_max":1000,"o":"m 758 109 l 850 690 l 1000 685 l 865 -24 l 664 -29 l 545 469 l 380 -5 l 178 -21 l 46 682 l 186 693 l 289 123 l 490 693 l 621 685 l 758 109 z "},"x":{"ha":750,"x_min":25,"x_max":724,"o":"m 25 663 l 167 696 l 376 439 l 582 700 l 710 650 l 463 334 l 724 14 l 599 -37 l 380 228 l 176 -35 l 33 4 l 293 335 l 25 663 z "},"y":{"ha":762,"x_min":-5,"x_max":726,"o":"m 575 688 l 726 686 q 661 493 690 581 q 608 335 631 406 q 581 256 595 299 q 553 175 566 213 q 532 113 540 136 q 502 27 515 65 q 479 -36 489 -10 q 465 -77 473 -56 q 448 -121 457 -98 q 404 -211 430 -166 q 343 -298 378 -256 q 262 -372 309 -338 q 155 -426 215 -405 q 21 -450 96 -447 l -5 -318 q 74 -316 37 -323 q 201 -251 145 -300 q 250 -201 226 -229 q 288 -147 271 -174 q 318 -96 305 -119 l 32 664 l 187 685 l 387 87 q 426 206 404 138 q 473 353 448 274 q 524 517 497 431 q 575 688 550 603 z "},"z":{"ha":772,"x_min":43,"x_max":715,"o":"m 216 85 l 710 111 l 715 -24 l 61 -52 l 43 89 l 529 554 l 82 538 l 81 673 l 693 690 l 704 543 l 216 85 z "},"ក":{"ha":882,"x_min":102,"x_max":780,"o":"m 780 1017 l 780 882 l 102 882 l 102 1017 l 780 1017 m 780 475 l 780 0 l 644 0 l 644 475 q 441 610 644 610 q 237 475 237 610 l 237 0 l 102 0 l 102 475 q 441 746 102 746 q 780 475 780 746 z "},"ខ":{"ha":882,"x_min":102,"x_max":780,"o":"m 780 746 q 305 363 780 479 l 237 347 l 237 271 q 441 136 237 136 q 644 271 644 136 l 644 407 l 780 407 l 780 271 q 441 0 780 0 q 102 271 102 0 l 102 453 l 271 494 q 644 746 644 585 q 441 882 644 882 q 237 746 237 882 l 305 746 l 305 610 l 203 610 q 102 712 102 610 l 102 746 q 441 1017 102 1017 q 780 746 780 1017 z "},"គ":{"ha":882,"x_min":102,"x_max":780,"o":"m 780 1017 l 780 882 l 102 882 l 102 1017 l 780 1017 m 368 407 l 475 323 l 237 20 l 237 0 l 102 0 l 102 475 q 441 746 102 746 q 780 475 780 746 l 780 0 l 644 0 l 644 475 q 441 610 644 610 q 237 475 237 610 l 237 240 l 368 407 z "},"ឃ":{"ha":1373,"x_min":68,"x_max":1272,"o":"m 644 1017 l 780 1017 l 780 271 q 958 136 780 136 q 1136 271 1136 136 l 1136 1017 l 1272 1017 l 1272 271 q 958 0 1272 0 q 709 80 787 0 q 441 0 625 0 q 102 271 102 0 l 102 319 q 305 746 305 530 q 277 852 305 816 q 245 872 261 872 q 219 859 232 872 q 208 828 208 848 q 237 743 208 796 l 277 676 l 172 604 l 127 661 q 68 841 68 721 q 129 962 68 902 q 245 1017 185 1017 q 335 986 290 1017 q 410 895 380 955 q 441 746 441 834 q 237 266 441 454 q 441 136 241 136 q 644 271 644 136 l 644 1017 z "},"ង":{"ha":882,"x_min":68,"x_max":780,"o":"m 572 747 q 557 746 565 746 q 543 746 550 746 l 339 746 q 102 949 102 746 l 102 1085 l 237 1085 l 237 949 q 339 882 237 882 l 543 882 q 661 1017 543 1017 q 780 882 780 1017 q 718 779 780 812 q 780 610 780 709 l 780 0 l 644 0 l 441 210 l 237 0 l 102 0 l 102 543 l 68 543 l 68 678 l 237 678 l 237 195 l 441 404 l 644 195 l 644 610 q 572 747 644 690 z "},"ច":{"ha":882,"x_min":68,"x_max":780,"o":"m 780 593 l 780 271 q 441 0 780 0 q 102 271 102 0 l 102 515 q 158 665 102 595 q 68 831 68 707 l 68 1017 l 780 1017 l 780 882 l 203 882 l 203 831 q 271 766 203 779 l 339 753 l 339 671 q 237 515 237 610 l 237 271 q 441 136 237 136 q 644 271 644 136 l 644 441 q 627 441 639 441 q 475 593 475 441 q 627 746 475 746 q 780 593 780 746 m 627 543 q 678 593 678 543 q 627 644 678 644 q 576 593 576 644 q 627 543 576 543 z "},"ឆ":{"ha":1051,"x_min":34,"x_max":949,"o":"m 34 882 l 34 1017 l 949 1017 l 949 882 l 295 882 q 407 271 407 714 q 376 123 407 184 q 301 31 346 62 q 211 0 256 0 q 95 56 151 0 q 34 176 34 116 q 93 357 34 297 q 266 441 140 417 q 41 882 236 882 l 34 882 m 949 593 l 949 0 l 814 0 q 441 319 814 319 l 441 454 q 814 348 687 454 l 814 441 q 797 441 808 441 q 644 593 644 441 q 797 746 644 746 q 949 593 949 746 m 797 543 q 848 593 848 543 q 797 644 848 644 q 746 593 746 644 q 797 543 746 543 m 271 271 l 271 312 q 203 275 222 302 q 174 189 174 221 q 185 159 174 170 q 211 145 199 145 q 243 165 228 145 q 271 271 271 201 z "},"ជ":{"ha":882,"x_min":68,"x_max":780,"o":"m 237 515 l 237 195 l 441 404 l 644 195 l 644 746 l 780 746 l 780 0 l 644 0 l 441 210 l 237 0 l 102 0 l 102 515 q 158 665 102 595 q 68 831 68 707 l 68 1017 l 217 1017 q 325 1000 256 1017 q 509 983 393 983 q 644 1051 644 983 l 644 1085 l 780 1085 l 780 1051 q 509 848 780 848 q 359 858 429 848 q 244 882 290 867 l 203 882 l 203 831 q 271 766 203 779 l 339 753 l 339 671 q 237 515 237 610 z "},"ឈ":{"ha":1814,"x_min":102,"x_max":1712,"o":"m 780 746 l 780 271 q 945 136 780 136 q 1111 271 1111 136 l 1111 1017 l 1246 1017 l 1246 271 q 1411 136 1246 136 q 1577 271 1577 136 l 1577 1017 l 1712 1017 l 1712 271 q 1411 0 1712 0 q 1179 75 1253 0 q 945 0 1103 0 q 644 271 644 0 l 644 746 q 441 882 644 882 q 237 746 237 882 q 434 699 237 699 l 434 563 q 237 271 237 563 q 266 165 237 201 q 298 145 281 145 q 323 159 310 145 q 335 189 335 170 q 306 275 335 221 l 266 341 l 370 414 l 416 357 q 475 176 475 297 q 414 56 475 116 q 298 0 357 0 q 208 31 254 0 q 132 123 163 62 q 102 271 102 184 q 195 604 102 496 q 102 746 102 650 q 441 1017 102 1017 q 780 746 780 1017 z "},"ញ":{"ha":1322,"x_min":102,"x_max":1221,"o":"m 983 882 l 780 882 l 780 0 l 644 0 l 644 866 l 503 729 l 379 729 l 237 866 l 237 746 q 407 665 237 671 l 407 529 l 399 529 q 237 271 237 529 q 266 165 237 201 q 298 145 281 145 q 323 159 310 145 q 335 189 335 170 q 306 275 335 221 l 266 341 l 370 414 l 416 357 q 475 176 475 297 q 414 56 475 116 q 298 0 357 0 q 208 31 254 0 q 132 123 163 62 q 102 271 102 184 q 195 576 102 497 q 102 746 102 623 l 102 1017 l 276 1017 l 441 858 l 606 1017 l 983 1017 q 1221 746 1221 1017 l 1221 0 l 1085 0 l 1085 746 q 983 882 1085 882 m 271 -271 l 102 -271 l 102 -136 l 271 -136 q 628 -237 507 -136 q 916 -339 749 -339 q 1085 -271 1085 -339 q 1017 -203 1085 -203 l 882 -203 l 882 -68 l 1017 -68 q 1221 -271 1221 -68 q 916 -475 1221 -475 q 532 -347 687 -475 q 271 -271 439 -271 z "},"ដ":{"ha":882,"x_min":102,"x_max":780,"o":"m 543 780 l 102 780 l 102 1017 l 237 1017 l 237 916 l 543 916 q 644 1017 644 916 l 644 1085 l 780 1085 l 780 1017 q 543 780 780 780 m 102 0 l 102 678 l 237 678 l 237 195 l 441 404 l 644 195 l 644 678 l 780 678 l 780 0 l 644 0 l 441 210 l 237 0 l 102 0 z "},"ឋ":{"ha":882,"x_min":68,"x_max":814,"o":"m 780 271 q 441 0 780 0 q 102 271 102 0 l 102 882 l 68 882 l 68 1017 l 237 1017 l 237 271 q 441 136 237 136 q 644 271 644 136 q 414 882 644 882 l 407 882 l 407 1017 l 678 1017 l 678 1119 l 814 1119 l 814 882 l 668 882 q 780 271 780 714 z "},"ឌ":{"ha":882,"x_min":102,"x_max":780,"o":"m 379 729 l 237 866 l 237 746 l 305 746 l 305 610 l 203 610 q 102 712 102 610 l 102 1017 l 276 1017 l 441 858 l 606 1017 l 780 1017 l 780 746 q 305 363 780 479 l 237 347 l 237 271 q 305 136 237 136 q 644 346 590 231 l 644 407 l 780 407 l 780 0 l 644 0 l 644 153 q 305 0 522 52 q 102 271 102 0 l 102 453 l 271 494 q 644 746 644 585 l 644 866 l 503 729 l 379 729 z "},"ឍ":{"ha":1322,"x_min":102,"x_max":1221,"o":"m 644 320 l 644 866 l 503 729 l 379 729 l 237 866 l 237 746 q 407 665 237 671 l 407 529 l 399 529 q 237 271 237 529 q 266 165 237 201 q 298 145 281 145 q 323 159 310 145 q 335 189 335 170 q 306 275 335 221 l 266 341 l 370 414 l 416 357 q 475 176 475 297 q 414 56 475 116 q 298 0 357 0 q 208 31 254 0 q 132 123 163 62 q 102 271 102 184 q 195 576 102 497 q 102 746 102 623 l 102 1017 l 276 1017 l 441 858 l 606 1017 l 780 1017 l 780 339 l 848 339 q 1085 248 975 339 l 1085 1017 l 1221 1017 l 1221 0 l 1085 0 q 848 203 1017 203 l 780 203 l 780 0 l 644 0 q 576 183 576 77 q 644 320 576 287 z "},"ណ":{"ha":1831,"x_min":102,"x_max":1729,"o":"m 949 370 l 1119 195 l 1119 746 q 1424 1017 1119 1017 q 1729 746 1729 1017 l 1729 0 l 1594 0 l 1594 746 q 1424 882 1594 882 q 1255 746 1255 882 l 1255 0 l 1119 0 l 949 175 l 780 0 l 644 0 l 644 746 q 441 882 644 882 q 237 746 237 882 q 434 699 237 699 l 434 563 q 237 271 237 563 q 266 165 237 201 q 298 145 281 145 q 323 159 310 145 q 335 189 335 170 q 306 275 335 221 l 266 341 l 370 414 l 416 357 q 475 176 475 297 q 414 56 475 116 q 298 0 357 0 q 208 31 254 0 q 132 123 163 62 q 102 271 102 184 q 195 604 102 496 q 102 746 102 650 q 441 1017 102 1017 q 780 746 780 1017 l 780 195 l 949 370 z "},"ត":{"ha":882,"x_min":102,"x_max":780,"o":"m 780 1017 l 780 882 l 102 882 l 102 1017 l 780 1017 m 102 271 l 102 475 q 441 746 102 746 q 780 475 780 746 l 780 0 l 644 0 l 644 475 q 441 610 644 610 q 237 475 237 610 l 237 271 q 266 165 237 201 q 298 145 281 145 q 323 159 310 145 q 335 189 335 170 q 306 275 335 221 l 266 341 l 370 414 l 416 357 q 475 176 475 297 q 414 56 475 116 q 298 0 357 0 q 208 31 254 0 q 132 123 163 62 q 102 271 102 184 z "},"ថ":{"ha":882,"x_min":68,"x_max":780,"o":"m 644 271 l 644 441 q 627 441 639 441 q 475 593 475 441 q 627 746 475 746 q 780 593 780 746 l 780 271 q 441 0 780 0 q 102 271 102 0 l 102 515 q 158 665 102 595 q 68 831 68 707 l 68 1017 l 217 1017 q 325 1000 256 1017 q 509 983 393 983 q 644 1051 644 983 l 644 1085 l 780 1085 l 780 1051 q 509 848 780 848 q 359 858 429 848 q 244 882 290 867 l 203 882 l 203 831 q 271 764 203 780 l 339 746 l 339 671 q 237 515 237 610 l 237 271 q 441 136 237 136 q 644 271 644 136 m 627 543 q 678 593 678 543 q 627 644 678 644 q 576 593 576 644 q 627 543 576 543 z "},"ទ":{"ha":882,"x_min":102,"x_max":780,"o":"m 712 351 l 712 271 q 424 0 712 0 q 136 271 136 0 l 136 407 l 271 407 l 271 271 q 424 136 271 136 q 576 271 576 136 l 576 363 q 102 746 102 479 q 441 1017 102 1017 q 780 780 780 1017 l 780 746 q 678 644 780 644 l 576 644 l 576 780 l 644 780 q 441 882 644 882 q 237 746 237 882 q 610 494 237 585 q 707 564 642 564 l 712 564 q 780 487 780 561 l 780 435 q 712 351 780 374 z "},"ធ":{"ha":882,"x_min":68,"x_max":780,"o":"m 237 515 l 237 195 l 441 404 l 644 195 l 644 441 q 627 441 639 441 q 475 593 475 441 q 627 746 475 746 q 780 593 780 746 l 780 0 l 644 0 l 441 210 l 237 0 l 102 0 l 102 515 q 158 665 102 595 q 68 831 68 707 l 68 1017 l 780 1017 l 780 882 l 203 882 l 203 831 q 271 766 203 779 l 339 753 l 339 671 q 237 515 237 610 m 627 543 q 678 593 678 543 q 627 644 678 644 q 576 593 576 644 q 627 543 576 543 z "},"ន":{"ha":882,"x_min":102,"x_max":780,"o":"m 441 384 l 644 188 l 644 427 l 585 437 q 102 746 102 511 q 441 1017 102 1017 q 780 780 780 1017 l 780 746 q 678 644 780 644 l 576 644 l 576 780 l 644 780 q 441 882 644 882 q 237 746 237 882 q 607 570 237 628 l 780 543 l 780 0 l 644 0 l 441 196 l 237 0 l 102 0 l 102 407 l 237 407 l 237 188 l 441 384 z "},"ប":{"ha":882,"x_min":68,"x_max":780,"o":"m 237 515 l 237 271 q 441 136 237 136 q 644 271 644 136 l 644 1017 l 780 1017 l 780 271 q 441 0 780 0 q 102 271 102 0 l 102 515 q 158 665 102 595 q 68 831 68 707 q 244 1017 68 1017 q 339 1004 290 1017 l 339 868 q 244 882 304 882 q 203 831 203 882 q 271 766 203 779 l 339 753 l 339 671 q 237 515 237 610 z "},"ផ":{"ha":882,"x_min":68,"x_max":780,"o":"m 441 404 l 644 195 l 644 441 q 627 441 639 441 q 475 593 475 441 q 627 746 475 746 q 780 593 780 746 l 780 0 l 644 0 l 441 210 l 237 0 l 102 0 l 102 515 q 158 665 102 595 q 68 831 68 707 l 68 1017 l 217 1017 q 325 1000 256 1017 q 509 983 393 983 q 644 1051 644 983 l 644 1085 l 780 1085 l 780 1051 q 509 848 780 848 q 359 858 429 848 q 244 882 290 867 l 203 882 l 203 831 q 271 766 203 779 l 339 753 l 339 671 q 237 515 237 610 l 237 195 l 441 404 m 627 543 q 678 593 678 543 q 627 644 678 644 q 576 593 576 644 q 627 543 576 543 z "},"ព":{"ha":882,"x_min":102,"x_max":780,"o":"m 606 1017 l 780 1017 l 780 0 l 644 0 l 644 866 l 503 729 l 379 729 l 237 866 l 237 746 q 407 665 237 671 l 407 529 l 399 529 q 237 271 237 529 q 266 165 237 201 q 298 145 281 145 q 323 159 310 145 q 335 189 335 170 q 306 275 335 221 l 266 341 l 370 414 l 416 357 q 475 176 475 297 q 414 56 475 116 q 298 0 357 0 q 208 31 254 0 q 132 123 163 62 q 102 271 102 184 q 195 576 102 497 q 102 746 102 623 l 102 1017 l 276 1017 l 441 858 l 606 1017 z "},"ភ":{"ha":882,"x_min":68,"x_max":780,"o":"m 780 1017 l 780 882 l 102 882 l 102 1017 l 780 1017 m 295 225 l 102 415 l 102 475 q 441 746 102 746 q 780 475 780 746 l 780 0 l 644 0 l 644 475 q 441 610 644 610 q 237 475 237 610 l 237 472 l 390 322 q 448 205 448 265 q 380 71 448 139 q 245 0 311 0 q 129 56 185 0 q 68 176 68 116 q 127 296 68 236 l 151 320 l 247 225 l 223 201 q 212 177 212 188 q 224 153 212 165 q 245 143 233 143 q 283 165 262 143 q 305 204 305 187 q 295 225 305 216 z "},"ម":{"ha":882,"x_min":68,"x_max":780,"o":"m 237 515 l 237 271 q 441 136 237 136 q 644 271 644 136 l 644 475 l 305 475 l 305 610 l 644 610 l 644 1017 l 780 1017 l 780 271 q 441 0 780 0 q 102 271 102 0 l 102 515 q 158 665 102 595 q 68 831 68 707 q 244 1017 68 1017 q 339 1004 290 1017 l 339 868 q 244 882 304 882 q 203 831 203 882 q 271 766 203 779 l 339 753 l 339 671 q 237 515 237 610 z "},"យ":{"ha":1373,"x_min":102,"x_max":1272,"o":"m 237 746 l 237 271 q 441 136 237 136 q 644 271 644 136 l 644 1017 l 780 1017 l 780 271 q 958 136 780 136 q 1136 271 1136 136 l 1136 1017 l 1272 1017 l 1272 271 q 958 0 1272 0 q 709 80 787 0 q 441 0 625 0 q 102 271 102 0 l 102 746 q 132 895 102 834 q 208 986 163 955 q 298 1017 254 1017 q 414 962 357 1017 q 475 841 475 902 q 416 661 475 721 l 370 604 l 266 676 l 306 743 q 335 828 335 796 q 323 859 335 848 q 298 872 311 872 q 266 852 281 872 q 237 746 237 816 z "},"រ":{"ha":509,"x_min":34,"x_max":441,"o":"m 407 271 q 376 123 407 184 q 301 31 346 62 q 211 0 256 0 q 95 56 151 0 q 34 176 34 116 q 93 357 34 297 l 138 414 l 243 341 l 203 275 q 174 189 174 221 q 185 159 174 170 q 211 145 199 145 q 243 165 228 145 q 271 271 271 201 q 41 882 271 882 l 34 882 l 34 1017 l 441 1017 l 441 882 l 295 882 q 407 271 407 714 z "},"ល":{"ha":1373,"x_min":102,"x_max":1272,"o":"m 780 746 l 780 271 q 958 136 780 136 q 1136 271 1136 136 l 1136 1017 l 1272 1017 l 1272 271 q 958 0 1272 0 q 644 271 644 0 l 644 746 q 441 882 644 882 q 237 746 237 882 q 434 699 237 699 l 434 563 q 237 271 237 563 q 266 165 237 201 q 298 145 281 145 q 323 159 310 145 q 335 189 335 170 q 306 275 335 221 l 266 341 l 370 414 l 416 357 q 475 176 475 297 q 414 56 475 116 q 298 0 357 0 q 208 31 254 0 q 132 123 163 62 q 102 271 102 184 q 195 604 102 496 q 102 746 102 650 q 441 1017 102 1017 q 780 746 780 1017 z "},"វ":{"ha":509,"x_min":34,"x_max":441,"o":"m 34 882 l 34 1017 l 305 1017 l 305 1119 l 441 1119 l 441 882 l 295 882 q 407 271 407 714 q 376 123 407 184 q 301 31 346 62 q 211 0 256 0 q 95 56 151 0 q 34 176 34 116 q 93 357 34 297 l 138 414 l 243 341 l 203 275 q 174 189 174 221 q 185 159 174 170 q 211 145 199 145 q 243 165 228 145 q 271 271 271 201 q 41 882 271 882 l 34 882 z "},"ឝ":{"ha":882,"x_min":102,"x_max":882,"o":"m 780 1017 l 780 882 l 102 882 l 102 1017 l 780 1017 m 780 475 l 780 441 l 882 441 l 882 305 l 780 305 l 780 0 l 644 0 l 644 305 l 509 305 l 509 441 l 644 441 l 644 475 q 441 610 644 610 q 237 475 237 610 l 237 240 l 368 407 l 475 323 l 237 20 l 237 0 l 102 0 l 102 475 q 441 746 102 746 q 780 475 780 746 z "},"ឞ":{"ha":882,"x_min":68,"x_max":882,"o":"m 237 515 l 237 271 q 441 136 237 136 q 644 271 644 136 l 644 475 l 475 475 l 475 610 l 644 610 l 644 1017 l 780 1017 l 780 610 l 882 610 l 882 475 l 780 475 l 780 271 q 441 0 780 0 q 102 271 102 0 l 102 515 q 158 665 102 595 q 68 831 68 707 q 244 1017 68 1017 q 339 1004 290 1017 l 339 868 q 244 882 304 882 q 203 831 203 882 q 271 766 203 779 l 339 753 l 339 671 q 237 515 237 610 z "},"ស":{"ha":1373,"x_min":102,"x_max":1272,"o":"m 237 475 l 237 271 q 266 165 237 201 q 298 145 281 145 q 323 159 310 145 q 335 189 335 170 q 306 275 335 221 l 266 341 l 370 414 l 416 357 q 475 176 475 297 q 414 56 475 116 q 298 0 357 0 q 208 31 254 0 q 132 123 163 62 q 102 271 102 184 l 102 475 q 441 746 102 746 q 780 475 780 746 l 780 271 q 958 136 780 136 q 1136 271 1136 136 l 1136 1017 l 1272 1017 l 1272 271 q 958 0 1272 0 q 644 271 644 0 l 644 475 q 441 610 644 610 q 237 475 237 610 m 712 1017 l 712 882 l 136 882 l 136 1017 l 712 1017 z "},"ហ":{"ha":1356,"x_min":68,"x_max":1255,"o":"m 237 515 l 237 271 q 441 136 237 136 q 644 271 644 136 l 644 746 q 949 1017 644 1017 q 1255 746 1255 1017 l 1255 0 l 1119 0 l 1119 746 q 949 882 1119 882 q 780 746 780 882 l 780 271 q 441 0 780 0 q 102 271 102 0 l 102 515 q 158 665 102 595 q 68 831 68 707 q 244 1017 68 1017 q 339 1004 290 1017 l 339 868 q 244 882 304 882 q 203 831 203 882 q 271 766 203 779 l 339 753 l 339 671 q 237 515 237 610 z "},"ឡ":{"ha":1221,"x_min":102,"x_max":1119,"o":"m 712 351 l 712 271 q 424 0 712 0 q 136 271 136 0 l 136 407 l 271 407 l 271 271 q 424 136 271 136 q 576 271 576 136 l 576 363 q 102 746 102 479 q 441 1017 102 1017 q 780 780 780 1017 l 780 746 q 678 644 780 644 l 576 644 l 576 780 l 644 780 q 441 882 644 882 q 237 746 237 882 q 610 494 237 585 q 707 564 642 564 l 712 564 q 780 487 780 561 l 780 435 q 712 351 780 374 m 780 -441 l 644 -441 l 644 -203 l 610 -203 l 610 -68 l 780 -68 l 780 -280 l 882 -175 l 983 -280 l 983 1017 l 1119 1017 l 1119 -441 l 983 -441 l 882 -336 l 780 -441 z "},"អ":{"ha":1051,"x_min":34,"x_max":949,"o":"m 407 271 q 376 123 407 184 q 301 31 346 62 q 211 0 256 0 q 95 56 151 0 q 34 176 34 116 q 93 357 34 297 l 138 414 l 243 341 l 203 275 q 174 189 174 221 q 185 159 174 170 q 211 145 199 145 q 243 165 228 145 q 271 271 271 201 q 41 882 271 882 l 34 882 l 34 1017 l 441 1017 l 441 882 l 295 882 q 407 271 407 714 m 949 0 l 814 0 l 814 475 l 441 475 l 441 610 l 814 610 l 814 1017 l 949 1017 l 949 0 z "},"ឥ":{"ha":882,"x_min":68,"x_max":780,"o":"m 197 786 q 68 882 161 850 l 68 1017 l 254 1017 q 509 983 370 983 q 644 1051 644 983 l 644 1085 l 780 1085 l 780 1051 q 509 848 780 848 q 290 867 397 848 q 303 844 297 857 q 315 819 309 832 l 197 786 m 102 271 l 102 475 q 441 746 102 746 q 780 475 780 746 l 780 0 l 644 0 l 644 475 q 441 610 644 610 q 237 475 237 610 l 237 271 q 266 165 237 201 q 298 145 281 145 q 323 159 310 145 q 335 189 335 170 q 306 275 335 221 l 266 341 l 370 414 l 416 357 q 475 176 475 297 q 414 56 475 116 q 298 0 357 0 q 208 31 254 0 q 132 123 163 62 q 102 271 102 184 z "},"ឦ":{"ha":1221,"x_min":102,"x_max":1119,"o":"m 1119 1085 l 1119 -271 q 916 -475 1119 -475 l 610 -475 l 610 -271 q 441 -170 610 -170 q 271 -271 271 -170 l 271 -339 l 373 -339 l 373 -475 l 136 -475 l 136 -271 q 441 -68 136 -68 q 746 -271 746 -68 l 746 -339 l 916 -339 q 983 -271 983 -339 l 983 1085 q 882 1221 983 1221 q 780 1153 780 1221 l 644 1153 l 644 1594 l 780 1594 l 781 1344 q 882 1356 825 1356 q 1119 1085 1119 1356 m 237 746 l 237 271 q 266 165 237 201 q 298 145 281 145 q 323 159 310 145 q 335 189 335 170 q 306 275 335 221 l 266 341 l 370 414 l 416 357 q 475 176 475 297 q 414 56 475 116 q 298 0 357 0 q 208 31 254 0 q 132 123 163 62 q 102 271 102 184 l 102 746 q 441 1017 102 1017 q 780 746 780 1017 l 780 0 l 644 0 l 644 746 q 441 882 644 882 q 237 746 237 882 z "},"ឧ":{"ha":882,"x_min":102,"x_max":780,"o":"m 780 -34 l 644 -34 l 644 153 q 305 0 522 52 q 102 271 102 0 l 102 453 l 271 494 q 644 746 644 585 q 441 882 644 882 q 237 746 237 882 l 305 746 l 305 610 l 203 610 q 102 712 102 610 l 102 746 q 441 1017 102 1017 q 780 746 780 1017 q 305 363 780 479 l 237 347 l 237 271 q 305 136 237 136 q 644 346 590 231 l 644 407 l 780 407 l 780 -34 z "},"ឨ":{"ha":882,"x_min":102,"x_max":780,"o":"m 780 1289 l 780 1153 l 102 1153 l 102 1289 l 780 1289 m 780 -34 l 644 -34 l 644 153 q 305 0 522 52 q 102 271 102 0 l 102 453 l 271 494 q 644 746 644 585 q 441 882 644 882 q 237 746 237 882 l 305 746 l 305 610 l 203 610 q 102 712 102 610 l 102 746 q 441 1017 102 1017 q 780 746 780 1017 q 305 363 780 479 l 237 347 l 237 271 q 305 136 237 136 q 644 346 590 231 l 644 407 l 780 407 l 780 -34 z "},"ឩ":{"ha":882,"x_min":102,"x_max":997,"o":"m 780 -34 l 644 -34 l 644 153 q 305 0 522 52 q 102 271 102 0 l 102 453 l 271 494 q 644 746 644 585 q 441 882 644 882 q 237 746 237 882 l 305 746 l 305 610 l 203 610 q 102 712 102 610 l 102 746 q 441 1017 102 1017 q 780 746 780 1017 q 305 363 780 479 l 237 347 l 237 271 q 305 136 237 136 q 644 346 590 231 l 644 407 l 780 407 l 780 -34 m 997 -34 l 861 -34 l 861 407 l 997 407 l 997 -34 z "},"ឪ":{"ha":882,"x_min":68,"x_max":780,"o":"m 197 1057 q 68 1153 161 1121 l 68 1289 l 254 1289 q 509 1255 370 1255 q 644 1322 644 1255 l 644 1356 l 780 1356 l 780 1322 q 509 1119 780 1119 q 290 1139 397 1119 q 303 1116 297 1128 q 315 1090 309 1103 l 197 1057 m 780 -34 l 644 -34 l 644 153 q 305 0 522 52 q 102 271 102 0 l 102 453 l 271 494 q 644 746 644 585 q 441 882 644 882 q 237 746 237 882 l 305 746 l 305 610 l 203 610 q 102 712 102 610 l 102 746 q 441 1017 102 1017 q 780 746 780 1017 q 305 363 780 479 l 237 347 l 237 271 q 305 136 237 136 q 644 346 590 231 l 644 407 l 780 407 l 780 -34 z "},"ឫ":{"ha":882,"x_min":68,"x_max":780,"o":"m 237 515 l 237 271 q 441 136 237 136 q 644 271 644 136 l 644 1017 l 780 1017 l 780 271 q 441 0 780 0 q 102 271 102 0 l 102 515 q 158 665 102 595 q 68 831 68 707 q 244 1017 68 1017 q 339 1004 290 1017 l 339 868 q 244 882 304 882 q 203 831 203 882 q 271 766 203 779 l 339 753 l 339 671 q 237 515 237 610 m 305 -475 l 102 -475 l 102 -339 l 305 -339 q 644 -203 644 -339 l 441 -203 l 441 -68 l 780 -68 l 780 -203 q 305 -475 780 -475 z "},"ឬ":{"ha":882,"x_min":68,"x_max":882,"o":"m 237 515 l 237 271 q 441 136 237 136 q 644 271 644 136 l 644 1017 l 780 1017 l 780 271 q 441 0 780 0 q 102 271 102 0 l 102 515 q 158 665 102 595 q 68 831 68 707 q 244 1017 68 1017 q 339 1004 290 1017 l 339 868 q 244 882 304 882 q 203 831 203 882 q 271 766 203 779 l 339 753 l 339 671 q 237 515 237 610 m 757 -309 q 814 -339 788 -339 l 882 -339 l 882 -475 l 814 -475 q 659 -408 727 -475 q 305 -475 539 -475 l 102 -475 l 102 -339 l 305 -339 q 644 -203 644 -339 l 441 -203 l 441 -68 l 780 -68 l 780 -203 q 757 -309 780 -264 z "},"ឭ":{"ha":882,"x_min":102,"x_max":780,"o":"m 606 1017 l 780 1017 l 780 0 l 644 0 l 644 866 l 503 729 l 379 729 l 237 866 l 237 746 q 407 665 237 671 l 407 529 l 399 529 q 237 271 237 529 q 266 165 237 201 q 298 145 281 145 q 323 159 310 145 q 335 189 335 170 q 306 275 335 221 l 266 341 l 370 414 l 416 357 q 475 176 475 297 q 414 56 475 116 q 298 0 357 0 q 208 31 254 0 q 132 123 163 62 q 102 271 102 184 q 195 576 102 497 q 102 746 102 623 l 102 1017 l 276 1017 l 441 858 l 606 1017 m 305 -475 l 102 -475 l 102 -339 l 305 -339 q 644 -203 644 -339 l 441 -203 l 441 -68 l 780 -68 l 780 -203 q 305 -475 780 -475 z "},"ឮ":{"ha":882,"x_min":102,"x_max":882,"o":"m 606 1017 l 780 1017 l 780 0 l 644 0 l 644 866 l 503 729 l 379 729 l 237 866 l 237 746 q 407 665 237 671 l 407 529 l 399 529 q 237 271 237 529 q 266 165 237 201 q 298 145 281 145 q 323 159 310 145 q 335 189 335 170 q 306 275 335 221 l 266 341 l 370 414 l 416 357 q 475 176 475 297 q 414 56 475 116 q 298 0 357 0 q 208 31 254 0 q 132 123 163 62 q 102 271 102 184 q 195 576 102 497 q 102 746 102 623 l 102 1017 l 276 1017 l 441 858 l 606 1017 m 757 -309 q 814 -339 788 -339 l 882 -339 l 882 -475 l 814 -475 q 659 -408 727 -475 q 305 -475 539 -475 l 102 -475 l 102 -339 l 305 -339 q 644 -203 644 -339 l 441 -203 l 441 -68 l 780 -68 l 780 -203 q 757 -309 780 -264 z "},"ឯ":{"ha":882,"x_min":68,"x_max":780,"o":"m 780 746 l 780 0 l 644 0 l 441 210 l 237 0 l 102 0 l 102 543 l 68 543 l 68 678 l 237 678 l 237 195 l 441 404 l 644 195 l 644 746 q 441 882 644 882 q 237 780 237 882 l 102 780 l 102 1255 l 237 1255 l 237 985 q 441 1017 317 1017 q 780 746 780 1017 z "},"ឰ":{"ha":882,"x_min":102,"x_max":780,"o":"m 606 1017 l 780 1017 l 780 0 l 644 0 l 644 866 l 503 729 l 379 729 l 237 866 l 237 746 q 407 665 237 671 l 407 529 l 399 529 q 237 271 237 529 q 266 165 237 201 q 298 145 281 145 q 323 159 310 145 q 335 189 335 170 q 306 275 335 221 l 266 341 l 370 414 l 416 357 q 475 176 475 297 q 414 56 475 116 q 298 0 357 0 q 208 31 254 0 q 132 123 163 62 q 102 271 102 184 q 195 576 102 497 q 102 746 102 623 l 102 1017 l 276 1017 l 441 858 l 606 1017 m 644 -34 l 780 -34 l 780 -271 q 605 -475 780 -475 q 452 -393 524 -475 q 294 -475 393 -475 q 102 -271 102 -475 l 102 -203 q 644 -34 375 -183 m 442 -219 q 605 -339 513 -339 q 644 -271 644 -339 l 644 -138 q 442 -219 498 -204 m 431 -225 q 236 -274 345 -254 q 293 -346 236 -346 q 431 -225 380 -346 z "},"ឱ":{"ha":882,"x_min":68,"x_max":780,"o":"m 441 1187 q 283 1152 328 1187 q 301 1104 294 1124 q 315 1070 309 1083 l 197 1037 q 68 1119 160 1102 l 68 1255 q 187 1294 131 1279 q 304 1316 243 1309 q 441 1322 366 1322 q 780 1085 780 1322 l 644 1085 q 441 1187 644 1187 m 780 -34 l 644 -34 l 644 153 q 305 0 522 52 q 102 271 102 0 l 102 453 l 271 494 q 644 746 644 585 q 441 882 644 882 q 237 746 237 882 l 305 746 l 305 610 l 203 610 q 102 712 102 610 l 102 746 q 441 1017 102 1017 q 780 746 780 1017 q 305 363 780 479 l 237 347 l 237 271 q 305 136 237 136 q 644 346 590 231 l 644 407 l 780 407 l 780 -34 z "},"ឲ":{"ha":882,"x_min":102,"x_max":780,"o":"m 102 271 l 102 746 q 441 1017 102 1017 q 780 814 780 1017 l 644 814 q 441 882 644 882 q 237 746 237 882 l 237 271 q 441 136 237 136 q 644 271 644 136 l 644 312 q 475 373 644 373 l 475 475 l 602 517 q 644 571 644 531 q 543 610 644 610 l 475 610 l 475 746 l 543 746 q 780 571 780 746 q 678 427 780 453 q 780 312 780 394 l 780 271 q 441 0 780 0 q 102 271 102 0 z "},"ឳ":{"ha":882,"x_min":68,"x_max":890,"o":"m 635 1294 q 819 1474 677 1387 l 890 1358 q 753 1200 755 1276 q 780 1085 780 1153 l 644 1085 q 441 1187 644 1187 q 283 1152 328 1187 q 301 1104 294 1124 q 315 1070 309 1083 l 197 1037 q 68 1119 160 1102 l 68 1255 q 187 1294 131 1279 q 304 1316 243 1309 q 441 1322 366 1322 q 635 1294 559 1322 m 780 -34 l 644 -34 l 644 153 q 305 0 522 52 q 102 271 102 0 l 102 453 l 271 494 q 644 746 644 585 q 441 882 644 882 q 237 746 237 882 l 305 746 l 305 610 l 203 610 q 102 712 102 610 l 102 746 q 441 1017 102 1017 q 780 746 780 1017 q 305 363 780 479 l 237 347 l 237 271 q 305 136 237 136 q 644 346 590 231 l 644 407 l 780 407 l 780 -34 z "},"ឣ":{"ha":1051,"x_min":34,"x_max":949,"o":"m 407 271 q 376 123 407 184 q 301 31 346 62 q 211 0 256 0 q 95 56 151 0 q 34 176 34 116 q 93 357 34 297 l 138 414 l 243 341 l 203 275 q 174 189 174 221 q 185 159 174 170 q 211 145 199 145 q 243 165 228 145 q 271 271 271 201 q 41 882 271 882 l 34 882 l 34 1017 l 441 1017 l 441 882 l 295 882 q 407 271 407 714 m 949 0 l 814 0 l 814 475 l 441 475 l 441 610 l 814 610 l 814 1017 l 949 1017 l 949 0 z "},"ឤ":{"ha":1492,"x_min":34,"x_max":1390,"o":"m 211 0 q 95 56 151 0 q 34 176 34 116 q 93 357 34 297 l 138 414 l 243 341 l 203 275 q 174 189 174 221 q 185 159 174 170 q 211 145 199 145 q 243 165 228 145 q 271 271 271 201 q 41 882 271 882 l 34 882 l 34 1017 l 441 1017 l 441 882 l 295 882 q 407 271 407 714 q 376 123 407 184 q 301 31 346 62 q 211 0 256 0 m 949 746 l 949 0 l 814 0 l 814 475 l 441 475 l 441 610 l 814 610 l 814 746 q 1102 1017 814 1017 q 1390 746 1390 1017 l 1390 0 l 1255 0 l 1255 746 q 1102 882 1255 882 q 949 746 949 882 z "},"឴":{"ha":817,"x_min":0,"x_max":0,"o":""},"឵":{"ha":817,"x_min":0,"x_max":0,"o":""},"ា":{"ha":339,"x_min":-102,"x_max":237,"o":"m 237 746 l 237 0 l 102 0 l 102 746 q 0 882 102 882 l -102 882 l -102 1017 l 0 1017 q 237 746 237 1017 z "},"ឿ":{"ha":339,"x_min":-475,"x_max":237,"o":"m 54 1492 l 136 1492 l 136 1290 q 237 1051 237 1229 l 237 -271 q -17 -475 237 -475 q -271 -271 -271 -475 l -271 -68 l -102 -68 l -102 -203 l -136 -203 l -136 -271 q -17 -339 -136 -339 q 102 -271 102 -339 l 102 1051 q 0 1187 102 1187 l -373 1187 q -475 1289 -475 1187 q -414 1407 -475 1356 q -231 1458 -353 1458 q -108 1439 -167 1458 l -109 1492 l -27 1492 l -26 1404 q 54 1353 17 1379 l 54 1492 m -315 1339 q -339 1289 -339 1322 l -22 1289 q -130 1339 -71 1322 q -241 1356 -189 1356 q -315 1339 -292 1356 z "},"ៀ":{"ha":339,"x_min":-271,"x_max":237,"o":"m -102 1153 l -237 1153 l -237 1594 l -102 1594 l -102 1344 q 0 1356 -58 1356 q 237 1085 237 1356 l 237 -271 q -17 -475 237 -475 q -271 -271 -271 -475 l -271 -68 l -102 -68 l -102 -203 l -136 -203 l -136 -271 q -17 -339 -136 -339 q 102 -271 102 -339 l 102 1085 q 0 1221 102 1221 q -102 1153 -102 1221 z "},"េ":{"ha":509,"x_min":102,"x_max":475,"o":"m 102 271 l 102 746 q 441 1017 102 1017 l 441 882 q 237 746 237 882 l 237 271 q 266 165 237 201 q 298 145 281 145 q 323 159 310 145 q 335 189 335 170 q 306 275 335 221 l 266 341 l 370 414 l 416 357 q 475 176 475 297 q 414 56 475 116 q 298 0 357 0 q 208 31 254 0 q 132 123 163 62 q 102 271 102 184 z "},"ែ":{"ha":509,"x_min":102,"x_max":475,"o":"m 237 1085 l 102 1085 l 102 1390 l 237 1390 l 237 1221 q 339 1390 339 1221 l 475 1390 q 237 1085 475 1085 m 102 271 l 102 746 q 441 1017 102 1017 l 441 882 q 237 746 237 882 l 237 271 q 266 165 237 201 q 298 145 281 145 q 323 159 310 145 q 335 189 335 170 q 306 275 335 221 l 266 341 l 370 414 l 416 357 q 475 176 475 297 q 414 56 475 116 q 298 0 357 0 q 208 31 254 0 q 132 123 163 62 q 102 271 102 184 z "},"ៃ":{"ha":509,"x_min":68,"x_max":475,"o":"m 102 1085 l 102 1187 l 305 1187 l 305 1238 q 271 1289 305 1289 l 237 1289 l 237 1255 l 102 1255 l 102 1390 q 68 1424 102 1424 l 68 1526 q 237 1424 237 1526 l 237 1390 l 271 1390 q 441 1238 441 1390 l 441 1085 l 102 1085 m 102 271 l 102 746 q 441 1017 102 1017 l 441 882 q 237 746 237 882 l 237 271 q 266 165 237 201 q 298 145 281 145 q 323 159 310 145 q 335 189 335 170 q 306 275 335 221 l 266 341 l 370 414 l 416 357 q 475 176 475 297 q 414 56 475 116 q 298 0 357 0 q 208 31 254 0 q 132 123 163 62 q 102 271 102 184 z "},"ោ":{"ha":339,"x_min":-102,"x_max":237,"o":"m 237 746 l 237 0 l 102 0 l 102 746 q 0 882 102 882 l -102 882 l -102 1017 l 0 1017 q 237 746 237 1017 z "},"ៅ":{"ha":339,"x_min":-102,"x_max":237,"o":"m 237 1289 l 237 1017 l 102 1017 l 102 1289 q 68 1356 102 1356 l 0 1356 l 0 1492 l 68 1492 q 237 1289 237 1492 m 237 746 l 237 0 l 102 0 l 102 746 q 0 882 102 882 l -102 882 l -102 1017 l 0 1017 q 237 746 237 1017 z "},"ះ":{"ha":610,"x_min":102,"x_max":509,"o":"m 305 1017 q 405 991 355 1017 q 481 916 454 965 q 509 814 509 867 q 482 713 509 761 q 407 637 455 664 q 305 610 358 610 q 204 637 252 610 q 129 712 155 664 q 102 814 102 761 q 130 916 102 866 q 205 991 157 965 q 305 1017 254 1017 m 305 882 q 258 862 278 882 q 237 814 237 842 q 257 766 237 785 q 305 746 277 746 q 353 766 334 746 q 373 814 373 785 q 353 862 373 842 q 305 882 333 882 m 305 407 q 405 381 355 407 q 481 306 454 355 q 509 203 509 256 q 482 102 509 151 q 407 27 455 54 q 305 0 358 0 q 204 27 252 0 q 129 102 155 54 q 102 203 102 151 q 130 306 102 256 q 205 381 157 355 q 305 407 254 407 m 305 271 q 258 251 278 271 q 237 203 237 231 q 257 155 237 175 q 305 136 277 136 q 353 155 334 136 q 373 203 373 175 q 353 251 373 231 q 305 271 333 271 z "},"ៈ":{"ha":407,"x_min":102,"x_max":305,"o":"m 203 916 q 254 903 230 916 q 291 865 277 890 q 305 814 305 840 q 292 764 305 787 q 254 726 278 739 q 203 712 230 712 q 153 726 177 712 q 115 763 129 739 q 102 814 102 787 q 115 865 102 840 q 153 902 129 889 q 203 916 178 916 m 203 305 q 254 292 230 305 q 291 255 277 279 q 305 203 305 230 q 292 153 305 177 q 254 115 278 129 q 203 102 230 102 q 153 115 177 102 q 115 153 129 129 q 102 203 102 177 q 115 254 102 229 q 153 292 129 279 q 203 305 178 305 z "},"ៜ":{"ha":916,"x_min":136,"x_max":780,"o":"m 458 -7 q 216 46 297 -7 q 136 199 136 98 q 153 272 136 246 q 204 308 171 298 q 291 317 237 317 q 332 277 332 317 q 291 237 332 237 q 263 198 263 237 q 458 99 263 99 q 604 138 554 99 q 653 244 653 176 q 630 324 653 297 q 566 360 607 351 q 458 368 526 368 q 216 417 296 368 q 136 571 136 467 q 217 756 136 691 q 458 821 298 821 q 780 617 780 821 q 763 544 780 569 q 712 508 746 517 q 625 498 679 498 q 585 538 585 498 q 625 577 585 577 q 653 617 653 577 q 604 690 653 664 q 458 715 554 715 q 313 677 362 715 q 263 571 263 638 q 286 491 263 518 q 350 455 309 464 q 458 446 391 446 q 700 397 620 446 q 780 243 780 348 q 699 58 780 123 q 458 -7 617 -7 z "},"០":{"ha":882,"x_min":102,"x_max":780,"o":"m 102 322 l 102 695 q 441 1017 102 1017 q 780 695 780 1017 l 780 322 q 441 0 780 0 q 102 322 102 0 m 237 322 q 441 136 237 136 q 644 322 644 136 l 644 695 q 441 882 644 882 q 237 695 237 882 l 237 322 z "},"១":{"ha":882,"x_min":102,"x_max":780,"o":"m 644 271 l 644 746 q 441 882 644 882 q 237 746 237 882 l 237 644 q 339 576 237 576 l 441 576 l 441 441 l 339 441 q 102 644 102 441 l 102 746 q 441 1017 102 1017 q 780 746 780 1017 l 780 271 q 441 0 780 0 q 102 271 102 0 l 237 271 q 441 136 237 136 q 644 271 644 136 z "},"២":{"ha":1051,"x_min":34,"x_max":949,"o":"m 814 1017 l 949 1017 l 949 271 q 526 0 949 0 q 102 271 102 0 l 102 1051 l 34 1051 l 34 1187 l 102 1187 q 237 1085 237 1187 l 237 271 q 526 136 237 136 q 814 271 814 136 l 814 869 l 644 751 l 481 869 l 481 644 l 515 644 l 515 509 l 339 509 l 339 1017 l 481 1017 l 644 899 l 814 1017 z "},"៣":{"ha":1153,"x_min":102,"x_max":1051,"o":"m 644 773 l 644 0 l 509 0 l 509 773 q 373 882 509 882 q 237 773 237 882 l 237 136 l 305 136 l 305 0 l 102 0 l 102 780 q 373 1017 102 1017 q 576 957 507 1017 q 780 1017 644 1017 q 1051 773 1051 1017 l 1051 0 l 916 0 l 916 773 q 780 882 916 882 q 644 773 644 882 z "},"៤":{"ha":882,"x_min":34,"x_max":780,"o":"m 237 271 q 407 136 237 136 l 597 136 l 475 304 l 475 543 q 509 636 475 593 q 610 678 543 678 l 780 678 l 780 543 l 610 543 l 610 338 l 780 136 l 746 0 l 407 0 q 102 271 102 0 l 102 1051 l 34 1051 l 34 1187 l 102 1187 q 237 1085 237 1187 l 237 271 z "},"៥":{"ha":882,"x_min":102,"x_max":780,"o":"m 407 136 l 604 136 l 475 304 l 475 509 q 509 602 475 559 q 610 644 543 644 l 780 644 l 780 509 l 610 509 l 610 324 l 780 136 l 746 0 l 407 0 q 102 271 102 0 l 102 746 l 216 818 q 178 832 199 823 q 122 882 142 850 q 102 949 102 914 l 102 1085 l 237 1085 l 237 916 l 644 916 l 644 1153 l 780 1153 l 780 916 q 644 780 780 780 l 237 780 l 237 271 q 407 136 237 136 z "},"៦":{"ha":882,"x_min":102,"x_max":780,"o":"m 237 746 l 102 746 l 102 1255 l 237 1255 l 237 981 q 441 1017 316 1017 q 780 746 780 1017 l 780 271 q 441 0 780 0 q 102 271 102 0 l 102 373 q 339 576 102 576 l 441 576 l 441 441 l 339 441 q 237 373 237 441 l 237 271 q 441 136 237 136 q 644 271 644 136 l 644 746 q 441 882 644 882 q 237 746 237 882 z "},"៧":{"ha":1119,"x_min":102,"x_max":1017,"o":"m 644 1017 l 780 1017 l 780 136 l 882 136 l 882 1221 l 1017 1221 l 1017 136 q 831 0 1017 0 q 644 136 644 0 l 644 866 l 441 720 l 237 866 l 237 136 l 339 136 l 339 0 l 102 0 l 102 1017 l 237 1017 l 441 871 l 644 1017 z "},"៨":{"ha":882,"x_min":102,"x_max":780,"o":"m 441 298 l 644 138 l 644 373 q 597 441 644 441 l 495 441 l 495 576 l 597 576 q 780 373 780 576 l 780 0 l 644 0 l 441 160 l 237 0 l 102 0 l 102 746 q 441 1017 102 1017 q 644 981 566 1017 l 644 1255 l 780 1255 l 780 746 l 644 746 q 441 882 644 882 q 237 746 237 882 l 237 138 l 441 298 z "},"៩":{"ha":882,"x_min":102,"x_max":780,"o":"m 644 989 l 644 1255 l 780 1255 l 780 814 l 644 814 q 441 882 644 882 q 237 773 237 882 q 441 678 237 678 l 678 678 l 678 543 l 441 543 q 237 475 237 543 l 237 220 q 441 136 237 136 q 644 220 644 136 q 543 305 644 305 l 441 305 l 441 441 l 543 441 q 780 220 780 441 q 441 0 780 0 q 102 220 102 0 l 102 475 q 195 614 128 583 q 102 773 128 645 q 441 1017 102 1017 q 644 989 565 1017 z "},".":{"ha":346,"x_min":86,"x_max":260,"o":"m 260 39 q 234 -22 260 3 q 174 -47 209 -47 q 112 -22 138 -47 q 86 39 86 3 q 112 101 86 75 q 174 126 137 126 q 235 100 210 126 q 260 39 260 75 z "},",":{"ha":346,"x_min":82,"x_max":260,"o":"m 260 39 q 247 -38 259 3 q 217 -111 237 -71 q 158 -186 196 -151 l 82 -160 q 102 -128 93 -146 q 118 -90 110 -113 q 132 -37 127 -68 q 99 -6 111 -26 q 86 39 86 14 q 112 101 86 75 q 172 126 137 126 q 234 101 209 126 q 260 39 260 75 z "},":":{"ha":349,"x_min":87,"x_max":261,"o":"m 261 497 q 236 436 261 462 q 175 411 210 411 q 113 436 139 411 q 87 497 87 462 q 113 559 87 534 q 175 585 138 585 q 236 559 211 585 q 261 497 261 533 m 261 39 q 236 -22 261 3 q 175 -47 210 -47 q 113 -22 139 -47 q 87 39 87 3 q 113 101 87 75 q 175 126 138 126 q 236 100 211 126 q 261 39 261 75 z "},";":{"ha":354,"x_min":87,"x_max":265,"o":"m 261 497 q 236 436 261 462 q 175 411 210 411 q 113 436 139 411 q 87 497 87 462 q 113 559 87 534 q 175 585 138 585 q 236 559 211 585 q 261 497 261 533 m 265 39 q 252 -38 264 3 q 222 -111 243 -71 q 164 -186 202 -151 l 87 -160 q 107 -128 98 -146 q 124 -90 115 -113 q 138 -37 132 -68 q 104 -6 117 -26 q 92 39 92 14 q 117 100 92 75 q 178 126 142 126 q 240 101 214 126 q 265 39 265 75 z "},"!":{"ha":371,"x_min":106,"x_max":271,"o":"m 131 200 l 106 1034 l 271 1039 l 236 203 l 131 200 m 260 21 q 237 -32 260 -10 q 183 -54 215 -54 q 130 -32 152 -54 q 109 21 109 -10 q 130 75 109 52 q 183 97 152 97 q 237 75 215 97 q 260 21 260 52 z "},"?":{"ha":774,"x_min":53,"x_max":715,"o":"m 383 1067 q 515 1041 454 1067 q 621 970 576 1016 q 690 863 665 925 q 715 726 715 800 q 710 657 715 692 q 690 588 704 622 q 652 520 676 553 q 591 457 628 488 q 523 406 565 435 q 456 351 481 376 q 408 282 425 321 q 400 189 391 243 l 278 189 q 271 244 271 220 q 293 338 271 298 q 351 411 315 378 q 428 475 387 444 q 505 542 469 508 q 563 619 541 576 q 585 718 585 662 q 528 879 585 811 q 461 931 500 911 q 372 951 421 951 q 270 921 313 951 q 203 841 227 891 q 180 732 180 791 q 181 699 180 716 q 186 663 182 682 l 65 644 q 55 690 58 668 q 53 734 53 713 q 77 863 53 802 q 144 968 101 923 q 249 1040 188 1014 q 383 1067 310 1067 m 427 21 q 405 -32 427 -10 q 351 -54 383 -54 q 298 -32 320 -54 q 275 21 275 -10 q 298 75 275 52 q 351 97 320 97 q 405 75 383 97 q 427 21 427 52 z "},"*":{"ha":725,"x_min":58,"x_max":657,"o":"m 395 713 l 616 817 l 657 675 l 447 625 l 635 471 l 522 379 l 359 576 l 258 370 l 123 428 l 260 628 l 58 675 l 110 802 l 289 721 l 248 947 l 407 957 l 395 713 z "},"#":{"ha":807,"x_min":81,"x_max":726,"o":"m 197 793 l 317 800 l 319 545 l 490 545 l 493 789 l 621 796 l 616 546 l 722 546 l 720 436 l 614 436 l 612 304 l 726 307 l 722 201 l 610 199 l 607 -20 l 486 -20 l 488 196 l 322 192 l 325 -28 l 197 -31 l 197 189 l 81 186 l 85 293 l 197 296 l 197 433 l 81 433 l 87 543 l 197 543 l 197 793 m 490 435 l 321 435 l 322 298 l 489 301 l 490 435 z "},"/":{"ha":729,"x_min":47,"x_max":686,"o":"m 47 9 l 541 966 l 686 946 l 174 -12 l 47 9 z "},"\\":{"ha":729,"x_min":43,"x_max":682,"o":"m 43 946 l 189 966 l 682 9 l 554 -12 l 43 946 z "},"(":{"ha":522,"x_min":45,"x_max":519,"o":"m 452 1207 l 519 1095 q 409 1020 457 1063 q 326 929 361 977 q 267 829 291 880 q 227 728 243 777 q 186 489 190 614 q 223 258 191 370 q 259 158 237 210 q 311 56 280 106 q 385 -42 342 5 q 484 -127 427 -89 l 407 -227 q 288 -133 339 -186 q 198 -23 236 -81 q 133 96 159 35 q 90 213 107 156 q 59 348 71 279 q 45 489 47 417 q 96 765 51 632 q 144 883 115 822 q 216 1002 174 943 q 317 1113 259 1060 q 452 1207 375 1166 z "},")":{"ha":522,"x_min":3,"x_max":478,"o":"m 478 489 q 464 348 475 417 q 433 213 452 279 q 389 96 416 156 q 325 -23 363 35 q 235 -133 287 -81 q 115 -227 183 -186 l 39 -127 q 137 -42 94 -89 q 211 56 180 5 q 264 158 243 106 q 299 258 285 210 q 336 489 331 370 q 294 728 332 612 q 255 829 279 777 q 195 929 231 880 q 113 1020 160 977 q 3 1095 65 1063 l 72 1207 q 206 1113 148 1166 q 307 1002 264 1060 q 379 883 349 943 q 427 765 408 822 q 478 489 472 632 z "},"{":{"ha":538,"x_min":37,"x_max":513,"o":"m 465 -60 l 513 -186 q 427 -220 468 -210 q 350 -231 386 -231 q 244 -206 290 -231 q 168 -144 199 -181 q 124 -62 138 -106 q 114 21 110 -18 q 129 94 119 64 q 150 155 138 127 q 173 206 161 182 q 193 252 185 231 q 202 297 200 275 q 197 345 204 319 q 169 384 189 367 q 120 411 151 399 q 37 424 89 424 l 37 547 q 120 559 89 547 q 169 587 151 572 q 197 627 189 604 q 202 674 204 651 q 192 719 200 696 q 173 765 184 741 q 161 790 168 777 q 150 817 155 803 q 129 877 138 844 q 114 950 119 909 q 124 1033 110 989 q 168 1115 138 1078 q 244 1177 199 1152 q 350 1202 290 1202 q 427 1191 386 1202 q 513 1157 468 1181 l 465 1031 q 412 1059 437 1052 q 368 1067 388 1067 q 292 1037 323 1067 q 261 960 261 1007 q 279 863 261 910 q 316 768 298 816 q 334 669 334 721 q 328 620 334 646 q 306 568 322 593 q 261 521 290 543 q 186 485 232 499 q 261 448 232 470 q 306 401 290 427 q 328 350 322 376 q 334 300 334 323 q 316 203 334 250 q 279 110 298 157 q 261 11 261 62 q 291 -65 261 -35 q 368 -96 321 -96 q 412 -88 388 -96 q 465 -60 437 -81 z "},"}":{"ha":538,"x_min":25,"x_max":500,"o":"m 500 547 l 500 424 q 417 411 448 424 q 369 384 386 399 q 340 345 349 367 q 336 297 334 319 q 347 252 338 275 q 366 206 355 230 q 377 181 372 195 q 389 155 383 168 q 410 94 400 127 q 424 21 420 62 q 414 -62 428 -18 q 370 -144 400 -106 q 293 -206 339 -181 q 187 -231 247 -231 q 111 -220 152 -231 q 25 -186 70 -210 l 72 -60 q 125 -88 100 -81 q 170 -96 150 -96 q 246 -66 215 -96 q 277 11 277 -36 q 259 107 277 60 q 222 202 241 155 q 204 300 204 250 q 236 408 204 357 q 351 485 269 458 q 236 562 269 511 q 204 669 204 614 q 222 766 204 719 q 259 861 241 813 q 277 960 277 909 q 247 1036 277 1004 q 170 1067 217 1067 q 125 1059 150 1067 q 72 1031 100 1052 l 25 1157 q 111 1191 70 1181 q 187 1202 152 1202 q 293 1177 247 1202 q 370 1115 339 1152 q 414 1033 400 1078 q 424 950 428 989 q 410 877 420 911 q 389 816 400 844 q 366 765 378 789 q 347 719 354 740 q 336 674 338 696 q 340 627 334 652 q 369 587 349 604 q 417 559 386 572 q 500 547 448 547 z "},"[":{"ha":501,"x_min":114,"x_max":461,"o":"m 256 -56 l 461 -56 l 461 -182 l 114 -182 l 114 1175 l 461 1175 l 461 1044 l 256 1044 l 256 -56 z "},"]":{"ha":501,"x_min":40,"x_max":387,"o":"m 40 1175 l 387 1175 l 387 -182 l 40 -182 l 40 -56 l 245 -56 l 245 1044 l 40 1044 l 40 1175 z "},"-":{"ha":717,"x_min":89,"x_max":629,"o":"m 89 533 l 629 549 l 629 407 l 93 392 l 89 533 z "},"_":{"ha":718,"x_min":87,"x_max":628,"o":"m 87 -74 l 628 -58 l 628 -200 l 92 -215 l 87 -74 z "},"«":{"ha":890,"x_min":45,"x_max":838,"o":"m 471 553 l 236 355 l 504 150 l 412 43 l 45 349 l 383 653 l 471 553 m 804 553 l 570 355 l 838 150 l 746 43 l 378 349 l 717 653 l 804 553 z "},"»":{"ha":889,"x_min":52,"x_max":844,"o":"m 86 553 l 172 653 l 511 349 l 143 43 l 52 150 l 319 355 l 86 553 m 419 553 l 505 653 l 844 349 l 476 43 l 385 150 l 653 355 l 419 553 z "},"\"":{"ha":536,"x_min":72,"x_max":468,"o":"m 109 659 l 72 974 l 245 974 l 199 659 l 109 659 m 330 644 l 294 960 l 468 960 l 421 644 l 330 644 z "},"'":{"ha":318,"x_min":75,"x_max":249,"o":"m 111 659 l 75 974 l 249 974 l 201 659 l 111 659 z "},"។":{"ha":780,"x_min":102,"x_max":678,"o":"m 237 746 l 102 746 l 102 1017 l 237 1017 l 237 882 q 543 1017 395 882 l 678 1017 l 678 0 l 543 0 l 543 845 q 237 746 435 746 z "},"៕":{"ha":1017,"x_min":102,"x_max":916,"o":"m 237 746 l 102 746 l 102 1017 l 237 1017 l 237 882 q 543 1017 395 882 l 678 1017 l 678 0 l 543 0 l 543 845 q 237 746 435 746 m 916 0 l 780 0 l 780 1017 l 916 1017 l 916 0 z "},"៖":{"ha":610,"x_min":34,"x_max":576,"o":"m 305 1017 q 405 991 355 1017 q 481 916 454 965 q 509 814 509 867 q 482 713 509 761 q 407 637 455 664 q 305 610 358 610 q 204 637 252 610 q 129 712 155 664 q 102 814 102 761 q 130 916 102 866 q 205 991 157 965 q 305 1017 254 1017 m 305 882 q 258 862 278 882 q 237 814 237 842 q 257 766 237 785 q 305 746 277 746 q 353 766 334 746 q 373 814 373 785 q 353 862 373 842 q 305 882 333 882 m 576 543 l 576 475 l 34 475 l 34 543 l 576 543 m 305 407 q 405 381 355 407 q 481 306 454 355 q 509 203 509 256 q 482 102 509 151 q 407 27 455 54 q 305 0 358 0 q 204 27 252 0 q 129 102 155 54 q 102 203 102 151 q 130 306 102 256 q 205 381 157 355 q 305 407 254 407 m 305 271 q 258 251 278 271 q 237 203 237 231 q 257 155 237 175 q 305 136 277 136 q 353 155 334 136 q 373 203 373 175 q 353 251 373 231 q 305 271 333 271 z "},"ៗ":{"ha":882,"x_min":102,"x_max":780,"o":"m 237 746 l 102 746 l 102 1017 l 237 1017 l 441 888 l 644 1017 l 780 1017 l 780 0 l 644 0 l 644 875 l 441 746 l 237 875 l 237 746 z "},"៘":{"ha":2933,"x_min":102,"x_max":2831,"o":"m 237 746 l 102 746 l 102 1017 l 237 1017 l 237 882 q 543 1017 395 882 l 678 1017 l 678 0 l 543 0 l 543 845 q 237 746 435 746 m 1560 746 l 1560 271 q 1738 136 1560 136 q 1916 271 1916 136 l 1916 1017 l 2051 1017 l 2051 271 q 1738 0 2051 0 q 1424 271 1424 0 l 1424 746 q 1221 882 1424 882 q 1017 746 1017 882 q 1214 699 1017 699 l 1214 563 q 1017 271 1017 563 q 1046 165 1017 201 q 1078 145 1061 145 q 1103 159 1090 145 q 1115 189 1115 170 q 1086 275 1115 221 l 1046 341 l 1150 414 l 1196 357 q 1255 176 1255 297 q 1194 56 1255 116 q 1078 0 1137 0 q 988 31 1034 0 q 912 123 943 62 q 882 271 882 184 q 975 604 882 496 q 882 746 882 650 q 1221 1017 882 1017 q 1560 746 1560 1017 m 2391 746 l 2255 746 l 2255 1017 l 2391 1017 l 2391 882 q 2696 1017 2548 882 l 2831 1017 l 2831 0 l 2696 0 l 2696 845 q 2391 746 2589 746 z "},"៙":{"ha":949,"x_min":102,"x_max":848,"o":"m 475 0 q 102 509 102 0 q 475 1017 102 1017 q 848 509 848 1017 q 475 0 848 0 m 475 932 q 195 509 195 932 q 475 85 195 85 q 755 509 755 85 q 475 932 755 932 m 475 170 q 288 509 288 170 q 475 848 288 848 q 661 509 661 848 q 475 170 661 170 m 475 763 q 382 509 382 763 q 475 254 382 254 q 568 509 568 254 q 475 763 568 763 z "},"៚":{"ha":1899,"x_min":102,"x_max":1797,"o":"m 356 1017 q 613 739 613 1017 q 401 555 613 555 q 358 601 358 555 q 401 647 358 647 q 526 740 526 647 q 358 925 526 925 q 186 740 186 925 l 186 277 q 358 90 186 90 q 528 193 443 90 q 698 507 614 296 l 865 922 l 950 922 l 1162 248 l 1289 829 l 1373 829 l 1501 346 l 1586 553 l 1756 553 q 1797 507 1797 553 q 1756 460 1797 460 l 1628 460 l 1544 185 l 1458 185 l 1331 647 l 1204 92 l 1120 92 l 907 808 l 766 460 q 356 0 578 0 q 102 277 102 0 l 102 740 q 356 1017 102 1017 z "}," ":{"ha":475,"x_min":0,"x_max":0,"o":""}," ":{"ha":475,"x_min":0,"x_max":0,"o":""},"$":{"ha":618,"x_min":53,"x_max":559,"o":"m 264 778 l 245 1067 l 390 1071 l 372 781 q 441 767 411 777 q 494 745 472 757 q 526 727 512 736 q 545 713 541 717 l 505 596 q 483 610 500 600 q 447 628 465 619 q 395 647 424 638 q 339 657 367 656 q 227 640 267 661 q 187 576 187 619 q 196 544 187 555 q 227 524 205 532 q 287 511 249 517 q 383 497 325 505 q 470 471 436 489 q 524 429 504 453 q 552 377 544 406 q 559 321 559 349 q 555 277 559 297 q 498 172 545 213 q 374 121 451 132 l 392 -199 l 261 -203 l 277 119 q 189 140 229 125 q 120 172 149 155 q 77 200 97 185 q 53 221 57 215 l 107 317 q 158 289 127 306 q 215 262 190 273 q 277 240 245 249 q 345 232 310 232 q 440 286 424 232 q 429 338 448 319 q 379 368 410 358 q 315 379 347 377 q 74 538 86 389 q 117 696 65 631 q 264 778 168 761 z "},"&":{"ha":871,"x_min":72,"x_max":848,"o":"m 757 408 l 848 359 q 776 231 814 286 q 700 131 739 175 q 740 80 718 109 q 781 28 762 52 q 810 -8 800 4 l 711 -75 l 616 49 q 529 -12 570 10 q 456 -45 488 -34 q 389 -64 420 -59 q 259 -53 317 -71 q 159 -1 201 -35 q 72 187 72 73 q 91 284 72 239 q 140 370 110 329 q 208 445 170 410 q 282 513 245 480 q 223 629 240 578 q 207 718 207 680 q 233 814 207 772 q 304 879 260 856 q 404 903 349 903 q 520 870 468 903 q 586 770 572 838 q 585 689 594 727 q 553 618 575 652 q 500 551 532 583 q 433 489 469 519 q 529 354 479 420 q 631 221 578 289 q 693 304 661 258 q 757 408 724 351 m 329 718 q 342 657 331 690 q 374 587 354 625 q 445 656 416 622 q 469 730 473 691 q 446 778 466 762 q 400 794 426 794 q 348 774 370 794 q 329 718 326 754 m 199 175 q 220 106 199 136 q 277 59 242 76 q 351 41 312 41 q 444 63 394 41 q 551 136 494 85 q 427 306 479 233 q 349 418 374 379 q 283 353 318 393 q 223 266 248 313 q 199 175 199 220 z "},"|":{"ha":371,"x_min":109,"x_max":268,"o":"m 109 -179 l 119 1174 l 268 1174 l 243 -172 l 109 -179 z "},"៛":{"ha":543,"x_min":34,"x_max":509,"o":"m 264 475 l 68 475 l 68 610 l 245 610 q 41 882 195 882 l 34 882 l 34 1017 l 441 1017 l 441 882 l 295 882 q 385 610 357 789 l 509 610 l 509 475 l 400 475 q 405 378 404 429 q 407 271 407 327 q 376 123 407 184 q 301 31 346 62 q 211 0 256 0 q 95 56 151 0 q 34 176 34 116 q 93 357 34 297 l 138 414 l 243 341 l 203 275 q 174 189 174 221 q 185 159 174 170 q 211 145 199 145 q 243 165 228 145 q 271 271 271 201 q 269 378 271 328 q 264 475 267 429 z "},"+":{"ha":672,"x_min":66,"x_max":607,"o":"m 401 542 l 607 549 l 607 421 l 399 414 l 393 193 l 265 197 l 271 411 l 71 406 l 66 533 l 273 539 l 279 737 l 407 730 l 401 542 z "},"=":{"ha":726,"x_min":92,"x_max":632,"o":"m 92 659 l 632 673 l 632 546 l 96 530 l 92 659 m 98 249 l 98 390 l 632 387 l 629 256 l 98 249 z "},">":{"ha":729,"x_min":68,"x_max":682,"o":"m 97 783 l 184 892 l 682 446 l 151 7 l 68 131 l 489 453 l 97 783 z "},"<":{"ha":729,"x_min":47,"x_max":661,"o":"m 632 783 l 239 453 l 661 131 l 576 7 l 47 446 l 545 892 l 632 783 z "},"~":{"ha":803,"x_min":90,"x_max":730,"o":"m 591 673 l 729 644 q 704 508 730 563 q 637 418 678 452 q 545 372 597 386 q 479 374 507 366 q 428 400 450 383 q 389 438 406 417 q 371 458 380 448 q 355 476 363 467 q 324 504 339 494 q 290 510 309 514 q 255 484 271 503 q 232 431 239 463 q 228 354 224 400 l 90 368 q 116 510 92 452 q 180 603 140 568 q 268 652 218 639 q 332 650 307 659 q 381 624 359 642 q 420 584 402 606 q 456 543 436 563 q 494 515 473 525 q 541 510 514 505 q 568 528 555 515 q 586 563 578 540 q 595 627 595 586 q 591 673 595 646 z "},"^":{"ha":648,"x_min":69,"x_max":572,"o":"m 277 785 l 440 778 l 572 317 l 454 289 l 343 684 l 183 304 l 69 339 l 277 785 z "},"%":{"ha":1044,"x_min":54,"x_max":990,"o":"m 212 9 l 733 966 l 851 946 l 311 -12 l 212 9 m 475 703 q 458 603 475 650 q 414 522 442 556 q 347 467 385 487 q 264 447 308 447 q 180 467 218 447 q 114 522 142 487 q 54 703 54 594 q 113 884 54 810 q 179 938 141 918 q 264 958 218 958 q 350 938 311 958 q 416 884 389 918 q 475 703 475 812 m 375 703 q 346 812 375 765 q 264 859 317 859 q 183 811 212 859 q 154 703 154 764 q 183 593 154 640 q 264 546 212 546 q 346 593 316 546 q 375 703 375 640 m 990 237 q 974 138 990 184 q 929 56 958 91 q 862 2 901 22 q 779 -18 823 -18 q 695 2 734 -18 q 629 56 657 22 q 570 237 570 129 q 629 418 570 345 q 695 473 656 453 q 779 493 733 493 q 865 473 827 493 q 932 418 904 453 q 990 237 990 347 m 890 237 q 861 346 890 299 q 779 393 831 393 q 699 346 728 393 q 669 237 669 298 q 699 127 669 174 q 779 81 728 81 q 861 127 831 81 q 890 237 890 174 z "},"◌":{"ha":825,"x_min":66,"x_max":758,"o":"m 449 714 q 412 676 449 676 q 376 714 376 676 q 412 750 376 750 q 449 714 449 750 m 332 689 q 294 653 332 653 q 258 689 258 653 q 294 726 258 726 q 332 689 332 726 m 567 689 q 532 653 567 653 q 493 689 493 653 q 532 726 493 726 q 567 689 567 726 m 232 623 q 195 586 232 586 q 158 621 158 586 q 195 660 158 660 q 232 623 232 660 m 667 623 q 632 586 667 586 q 595 623 595 586 q 632 660 595 660 q 667 623 667 660 m 164 522 q 129 485 164 485 q 90 522 90 485 q 127 558 90 558 q 164 522 164 558 m 734 522 q 697 485 734 485 q 661 522 661 485 q 699 558 661 558 q 734 522 734 558 m 140 404 q 104 368 140 368 q 66 404 66 368 q 104 440 66 440 q 140 404 140 440 m 758 404 q 724 368 758 368 q 686 404 686 368 q 724 440 686 440 q 758 404 758 440 m 164 286 q 127 250 164 250 q 90 286 90 250 q 127 323 90 323 q 164 286 164 323 m 734 286 q 697 250 734 250 q 661 286 661 250 q 697 323 661 323 q 734 286 734 323 m 232 184 q 195 149 232 149 q 158 184 158 149 q 195 222 158 222 q 232 184 232 222 m 667 184 q 632 149 667 149 q 595 184 595 149 q 632 222 595 222 q 667 184 667 222 m 332 121 q 294 83 332 83 q 258 118 258 83 q 294 155 258 155 q 332 121 332 155 m 567 118 q 532 83 567 83 q 493 118 493 83 q 532 155 493 155 q 567 118 567 155 m 449 96 q 412 58 449 58 q 376 96 376 58 q 412 132 376 132 q 449 96 449 132 z "},"@":{"ha":1108,"x_min":67,"x_max":1057,"o":"m 1054 517 q 1026 383 1051 439 q 964 291 1001 327 q 884 239 927 255 q 802 227 840 223 q 719 249 757 231 q 660 307 682 268 q 616 277 639 288 q 576 258 594 265 q 554 252 565 255 q 533 248 543 249 q 449 252 487 241 q 382 288 410 262 q 318 436 323 339 q 330 524 315 484 q 372 593 345 564 q 518 656 427 656 q 564 652 541 655 q 606 642 583 648 q 650 623 629 635 l 657 672 l 765 669 q 759 544 761 595 q 757 463 758 494 q 757 404 755 426 q 777 346 754 361 q 823 336 800 332 q 855 346 837 338 q 890 371 873 354 q 914 406 902 382 q 932 458 925 427 q 939 532 939 489 q 910 650 939 595 q 829 746 881 705 q 707 808 778 786 q 551 829 635 830 q 451 812 497 828 q 289 695 356 777 q 258 654 272 675 q 233 610 244 633 q 197 518 210 566 q 184 425 184 471 q 200 303 184 357 q 254 208 216 249 q 358 140 293 168 q 522 97 423 112 l 492 -11 q 341 19 405 -5 q 231 76 277 42 q 155 151 185 110 q 109 233 125 191 q 74 452 67 331 q 88 535 79 496 q 111 610 98 574 q 179 731 139 679 q 269 821 220 784 q 372 882 321 859 q 475 917 424 905 q 572 929 527 928 q 677 922 619 931 q 787 890 732 911 q 890 834 841 868 q 937 797 916 817 q 977 754 958 777 q 1036 648 1015 707 q 1054 517 1057 589 m 639 415 q 640 464 639 439 q 642 517 640 490 q 606 539 624 531 q 573 551 588 547 q 539 555 558 554 q 463 518 489 555 q 436 443 436 481 q 458 377 436 406 q 532 349 480 349 q 566 357 547 349 q 600 377 581 363 q 639 415 619 391 z "},"`":{"ha":269,"x_min":0,"x_max":269,"o":"m 0 987 l 127 1099 l 269 854 l 183 806 l 0 987 z "},"ិ":{"ha":0,"x_min":-712,"x_max":-102,"o":"m -712 1255 q -651 1373 -712 1322 q -468 1424 -590 1424 q -271 1373 -367 1424 q -102 1255 -174 1321 l -102 1153 l -610 1153 q -712 1255 -712 1153 m -478 1322 q -553 1305 -530 1322 q -576 1255 -576 1288 l -259 1255 q -368 1305 -308 1289 q -478 1322 -427 1322 z "},"ី":{"ha":0,"x_min":-712,"x_max":-102,"o":"m -224 1346 l -224 1458 l -102 1458 l -102 1153 l -610 1153 q -712 1255 -712 1153 q -651 1373 -712 1322 q -468 1424 -590 1424 q -271 1373 -367 1424 q -224 1346 -245 1359 m -553 1305 q -576 1255 -576 1288 l -259 1255 q -368 1305 -308 1289 q -478 1322 -427 1322 q -553 1305 -530 1322 z "},"ឹ":{"ha":0,"x_min":-712,"x_max":-68,"o":"m -334 1401 q -208 1457 -304 1457 q -103 1428 -139 1457 q -68 1339 -68 1398 q -101 1250 -68 1279 l -102 1153 l -610 1153 q -712 1255 -712 1153 q -651 1373 -712 1322 q -468 1424 -590 1424 q -334 1401 -399 1424 m -260 1368 q -160 1303 -208 1339 q -148 1339 -148 1316 q -163 1377 -148 1364 q -208 1390 -178 1390 q -260 1368 -247 1390 m -553 1305 q -576 1255 -576 1288 l -259 1255 q -368 1305 -308 1289 q -478 1322 -427 1322 q -553 1305 -530 1322 z "},"ឺ":{"ha":0,"x_min":-712,"x_max":-102,"o":"m -345 1405 l -346 1492 l -264 1492 l -264 1370 q -183 1319 -220 1345 l -183 1458 l -102 1458 l -102 1153 l -610 1153 q -712 1255 -712 1153 q -651 1373 -712 1322 q -468 1424 -590 1424 q -345 1405 -404 1424 m -553 1305 q -576 1255 -576 1288 l -259 1255 q -368 1305 -308 1289 q -478 1322 -427 1322 q -553 1305 -530 1322 z "},"ុ":{"ha":0,"x_min":-237,"x_max":-102,"o":"m -237 -475 l -237 -68 l -102 -68 l -102 -475 l -237 -475 z "},"ូ":{"ha":0,"x_min":-509,"x_max":-102,"o":"m -509 -305 l -509 -68 l -373 -68 l -373 -305 q -305 -373 -373 -373 q -237 -305 -237 -373 l -237 -68 l -102 -68 l -102 -305 q -305 -475 -102 -475 q -509 -305 -509 -475 z "},"ួ":{"ha":0,"x_min":-543,"x_max":-102,"o":"m -407 -475 l -543 -475 l -543 -68 l -407 -68 l -407 -346 l -322 -258 l -237 -346 l -237 -68 l -102 -68 l -102 -475 l -237 -475 l -322 -387 l -407 -475 z "},"ើ":{"ha":0,"x_min":-712,"x_max":-102,"o":"m -224 1346 l -224 1458 l -102 1458 l -102 1153 l -610 1153 q -712 1255 -712 1153 q -651 1373 -712 1322 q -468 1424 -590 1424 q -271 1373 -367 1424 q -224 1346 -245 1359 m -553 1305 q -576 1255 -576 1288 l -259 1255 q -368 1305 -308 1289 q -478 1322 -427 1322 q -553 1305 -530 1322 z "},"ំ":{"ha":0,"x_min":-644,"x_max":-237,"o":"m -441 1560 q -341 1534 -389 1560 q -265 1458 -292 1508 q -237 1356 -237 1409 q -264 1255 -237 1303 q -339 1180 -291 1206 q -441 1153 -388 1153 q -542 1180 -494 1153 q -617 1255 -590 1206 q -644 1356 -644 1303 q -617 1459 -644 1409 q -541 1534 -589 1508 q -441 1560 -492 1560 m -441 1424 q -488 1404 -468 1424 q -509 1356 -509 1384 q -488 1309 -509 1329 q -441 1289 -468 1289 q -393 1308 -412 1289 q -373 1356 -373 1328 q -393 1404 -373 1384 q -441 1424 -413 1424 z "},"៉":{"ha":0,"x_min":-614,"x_max":-268,"o":"m -505 1560 l -505 1153 l -614 1153 l -614 1560 l -505 1560 m -268 1560 l -268 1153 l -376 1153 l -376 1560 l -268 1560 z "},"៊":{"ha":0,"x_min":-780,"x_max":-102,"o":"m -102 1289 l -102 1153 l -780 1153 l -780 1289 l -493 1289 l -441 1255 l -388 1289 l -102 1289 z "},"់":{"ha":0,"x_min":-509,"x_max":-373,"o":"m -373 1560 l -373 1153 l -509 1153 l -509 1560 l -373 1560 z "},"៌":{"ha":0,"x_min":-702,"x_max":-180,"o":"m -626 1160 l -702 1267 q -528 1421 -597 1335 q -438 1583 -459 1507 l -336 1552 q -370 1456 -355 1489 q -399 1401 -384 1422 q -437 1352 -414 1379 q -403 1355 -422 1355 q -320 1343 -366 1355 q -180 1247 -254 1326 l -278 1153 q -418 1244 -333 1234 q -446 1247 -433 1246 q -470 1248 -458 1248 q -543 1234 -517 1248 q -626 1160 -581 1213 z "},"៍":{"ha":0,"x_min":-746,"x_max":-136,"o":"m -610 1258 q -561 1227 -610 1227 l -511 1227 l -511 1153 l -561 1153 q -746 1258 -746 1153 q -543 1390 -746 1390 l -373 1390 q -271 1492 -271 1390 l -136 1492 l -136 1458 q -373 1289 -136 1289 l -543 1289 q -610 1258 -610 1289 z "},"៎":{"ha":0,"x_min":-644,"x_max":-237,"o":"m -509 1560 l -373 1560 l -373 1424 l -237 1424 l -237 1289 l -373 1289 l -373 1153 l -509 1153 l -509 1289 l -644 1289 l -644 1424 l -509 1424 l -509 1560 z "},"៏":{"ha":0,"x_min":-746,"x_max":-136,"o":"m -608 1153 l -746 1153 l -746 1438 l -452 1438 q -273 1506 -273 1438 l -136 1506 l -136 1478 q -250 1356 -136 1356 l -608 1356 l -608 1248 l -441 1306 l -273 1247 l -273 1302 l -136 1302 l -136 1153 l -273 1153 l -441 1212 l -607 1153 l -608 1154 l -608 1153 z "},"័":{"ha":0,"x_min":-610,"x_max":0,"o":"m -610 1289 q -407 1417 -610 1417 l -373 1417 l -373 1322 l -409 1322 q -475 1289 -475 1322 q -312 1255 -475 1255 q -136 1424 -136 1255 l 0 1424 q -312 1153 0 1153 q -610 1289 -610 1153 z "},"៑":{"ha":0,"x_min":-780,"x_max":-102,"o":"m -102 1289 l -102 1153 l -780 1153 l -780 1289 l -102 1289 z "},"្":{"ha":0,"x_min":-644,"x_max":-237,"o":"m -509 -68 l -373 -68 l -373 -203 l -237 -203 l -237 -339 l -373 -339 l -373 -475 l -509 -475 l -509 -339 l -644 -339 l -644 -203 l -509 -203 l -509 -68 z "},"៓":{"ha":0,"x_min":-746,"x_max":-136,"o":"m -441 1628 q -290 1597 -362 1628 q -177 1509 -218 1567 q -136 1390 -136 1452 q -176 1272 -136 1329 q -288 1184 -215 1215 q -441 1153 -361 1153 q -591 1184 -520 1153 q -705 1272 -664 1215 q -746 1390 -746 1329 q -705 1510 -746 1452 q -590 1597 -663 1567 q -441 1628 -517 1628 m -440 1470 q -495 1446 -471 1470 q -519 1390 -519 1422 q -495 1335 -519 1358 q -440 1311 -471 1311 q -384 1334 -406 1311 q -361 1390 -361 1358 q -384 1446 -361 1423 q -440 1470 -408 1470 z "},"៝":{"ha":0,"x_min":-739,"x_max":-135,"o":"m -609 997 l -739 997 q -437 1201 -739 1201 q -135 997 -135 1201 l -267 997 q -437 1120 -267 1120 q -609 997 -609 1120 z "}}}
